<svg width="270" height="210" viewBox="0 0 270 210" fill="none" xmlns="http://www.w3.org/2000/svg">
<path d="M269.92 183.784H-10.0796V183.924H269.92V183.784Z" fill="#EBEBEB"/>
<path d="M241.865 192.794H223.317V192.934H241.865V192.794Z" fill="#EBEBEB"/>
<path d="M175.403 194.317H170.536V194.457H175.403V194.317Z" fill="#EBEBEB"/>
<path d="M222.758 187.597H212.011V187.737H222.758V187.597Z" fill="#EBEBEB"/>
<path d="M43.4852 188.538H19.2988V188.678H43.4852V188.538Z" fill="#EBEBEB"/>
<path d="M52.0189 188.538H48.4741V188.678H52.0189V188.538Z" fill="#EBEBEB"/>
<path d="M116.004 190.901H63.5435V191.041H116.004V190.901Z" fill="#EBEBEB"/>
<path d="M122.642 158.808H14.5113C13.6643 158.806 12.8524 158.469 12.2539 157.869C11.6555 157.27 11.3193 156.457 11.3193 155.61V3.6093C11.3267 2.76707 11.6661 1.96177 12.2637 1.3683C12.8614 0.774834 13.6691 0.44114 14.5113 0.439697H122.642C123.49 0.439697 124.303 0.776586 124.903 1.37625C125.502 1.97592 125.839 2.78924 125.839 3.6373V155.61C125.839 156.458 125.502 157.271 124.903 157.871C124.303 158.471 123.49 158.808 122.642 158.808ZM14.5113 0.551698C13.7014 0.553181 12.9251 0.875974 12.3529 1.44922C11.7807 2.02247 11.4593 2.79934 11.4593 3.6093V155.61C11.4593 156.42 11.7807 157.197 12.3529 157.77C12.9251 158.343 13.7014 158.666 14.5113 158.668H122.642C123.452 158.666 124.229 158.344 124.802 157.771C125.375 157.197 125.698 156.421 125.699 155.61V3.6093C125.698 2.79883 125.375 2.02197 124.802 1.44888C124.229 0.875792 123.452 0.553178 122.642 0.551698H14.5113Z" fill="#EBEBEB"/>
<path d="M243.774 158.808H135.638C134.79 158.806 133.977 158.469 133.378 157.87C132.779 157.27 132.441 156.458 132.44 155.61V3.6093C132.449 2.76656 132.789 1.96126 133.388 1.36795C133.987 0.774638 134.795 0.441124 135.638 0.439697H243.774C244.615 0.442612 245.421 0.776957 246.018 1.37026C246.614 1.96357 246.953 2.76804 246.96 3.6093V155.61C246.96 156.456 246.625 157.268 246.027 157.867C245.43 158.467 244.62 158.805 243.774 158.808ZM135.638 0.551698C134.827 0.553178 134.05 0.875792 133.477 1.44888C132.904 2.02197 132.581 2.79883 132.58 3.6093V155.61C132.581 156.421 132.904 157.197 133.477 157.771C134.05 158.344 134.827 158.666 135.638 158.668H243.774C244.584 158.666 245.361 158.344 245.934 157.771C246.507 157.197 246.83 156.421 246.831 155.61V3.6093C246.83 2.79883 246.507 2.02197 245.934 1.44888C245.361 0.875792 244.584 0.553178 243.774 0.551698H135.638Z" fill="#EBEBEB"/>
<path d="M190.966 102.645H178.478V107.96H190.966V102.645Z" fill="#FAFAFA"/>
<path d="M175.857 102.645H163.369V107.96H175.857V102.645Z" fill="#FAFAFA"/>
<path d="M160.748 102.645H148.26V107.96H160.748V102.645Z" fill="#FAFAFA"/>
<path d="M198.52 110.043H186.032V115.357H198.52V110.043Z" fill="#FAFAFA"/>
<path d="M183.411 110.043H170.923V115.357H183.411V110.043Z" fill="#FAFAFA"/>
<path d="M168.302 110.043H155.814V115.357H168.302V110.043Z" fill="#FAFAFA"/>
<path d="M153.193 110.043H140.705V115.357H153.193V110.043Z" fill="#FAFAFA"/>
<path d="M222.874 117.441H210.386V122.755H222.874V117.441Z" fill="#FAFAFA"/>
<path d="M207.766 117.441H195.278V122.755H207.766V117.441Z" fill="#FAFAFA"/>
<path d="M175.857 117.441H163.369V122.755H175.857V117.441Z" fill="#FAFAFA"/>
<path d="M160.748 117.441H148.26V122.755H160.748V117.441Z" fill="#FAFAFA"/>
<path d="M145.639 117.441H133.151V122.755H145.639V117.441Z" fill="#FAFAFA"/>
<path d="M215.32 124.833H202.832V130.147H215.32V124.833Z" fill="#FAFAFA"/>
<path d="M183.411 124.833H170.923V130.147H183.411V124.833Z" fill="#FAFAFA"/>
<path d="M168.302 124.833H155.814V130.147H168.302V124.833Z" fill="#FAFAFA"/>
<path d="M153.193 124.833H140.705V130.147H153.193V124.833Z" fill="#FAFAFA"/>
<path d="M94.2536 27.2974H81.7656V32.6118H94.2536V27.2974Z" fill="#FAFAFA"/>
<path d="M79.1447 27.2973H66.6567V32.6117H79.1447V27.2973Z" fill="#FAFAFA"/>
<path d="M101.808 34.695H89.3203V40.0094H101.808V34.695Z" fill="#FAFAFA"/>
<path d="M86.6994 34.6948H74.2114V40.0092H86.6994V34.6948Z" fill="#FAFAFA"/>
<path d="M56.4826 34.695H43.9946V40.0094H56.4826V34.695Z" fill="#FAFAFA"/>
<path d="M41.3737 34.695H28.8857V40.0094H41.3737V34.695Z" fill="#FAFAFA"/>
<path d="M79.1447 42.0925H66.6567V47.4069H79.1447V42.0925Z" fill="#FAFAFA"/>
<path d="M216.687 70.5852H204.199V75.8996H216.687V70.5852Z" fill="#FAFAFA"/>
<path d="M190.378 70.5853H177.89V75.8997H190.378V70.5853Z" fill="#FAFAFA"/>
<path d="M224.247 77.9829H211.759V83.2973H224.247V77.9829Z" fill="#FAFAFA"/>
<path d="M209.133 77.9829H196.645V83.2973H209.133V77.9829Z" fill="#FAFAFA"/>
<path d="M80.2146 63.1261H67.7266V68.4405H80.2146V63.1261Z" fill="#FAFAFA"/>
<path d="M48.3005 63.1261H35.8125V68.4405H48.3005V63.1261Z" fill="#FAFAFA"/>
<path d="M87.7693 70.5182H75.2812V75.8326H87.7693V70.5182Z" fill="#FAFAFA"/>
<path d="M67.0539 70.5181H54.5659V75.8325H67.0539V70.5181Z" fill="#FAFAFA"/>
<path d="M216.687 85.3806H204.199V90.695H216.687V85.3806Z" fill="#FAFAFA"/>
<path d="M190.378 85.3805H177.89V90.6949H190.378V85.3805Z" fill="#FAFAFA"/>
<path d="M48.9279 42.0923H36.4399V47.4067H48.9279V42.0923Z" fill="#FAFAFA"/>
<path d="M225.843 27.4988H213.355V32.8132H225.843V27.4988Z" fill="#FAFAFA"/>
<path d="M210.734 27.4988H198.246V32.8132H210.734V27.4988Z" fill="#FAFAFA"/>
<path d="M218.288 34.8909H205.8V40.2053H218.288V34.8909Z" fill="#FAFAFA"/>
<path d="M158.155 27.6163H145.667V32.9307H158.155V27.6163Z" fill="#FAFAFA"/>
<path d="M143.047 27.6164H130.559V32.9308H143.047V27.6164Z" fill="#FAFAFA"/>
<path d="M165.709 35.0084H153.221V40.3228H165.709V35.0084Z" fill="#FAFAFA"/>
<path d="M150.602 35.0085H138.114V40.3229H150.602V35.0085Z" fill="#FAFAFA"/>
<path d="M135.492 35.0085H123.004V40.3229H135.492V35.0085Z" fill="#FAFAFA"/>
<path d="M173.264 42.406H160.776V47.7204H173.264V42.406Z" fill="#FAFAFA"/>
<path d="M158.155 42.406H145.667V47.7204H158.155V42.406Z" fill="#FAFAFA"/>
<path d="M143.047 42.4061H130.559V47.7205H143.047V42.4061Z" fill="#FAFAFA"/>
<path d="M165.709 49.8036H153.221V55.1181H165.709V49.8036Z" fill="#FAFAFA"/>
<path d="M150.602 49.8036H138.114V55.1181H150.602V49.8036Z" fill="#FAFAFA"/>
<path d="M64.1545 100.64H51.6665V105.955H64.1545V100.64Z" fill="#FAFAFA"/>
<path d="M49.0398 100.641H36.5518V105.955H49.0398V100.641Z" fill="#FAFAFA"/>
<path d="M107.531 101.312H95.0435V106.627H107.531V101.312Z" fill="#FAFAFA"/>
<path d="M71.7087 108.032H59.2207V113.347H71.7087V108.032Z" fill="#FAFAFA"/>
<path d="M56.5944 108.032H44.1064V113.347H56.5944V108.032Z" fill="#FAFAFA"/>
<path d="M115.086 108.71H102.598V114.024H115.086V108.71Z" fill="#FAFAFA"/>
<path d="M99.9724 108.71H87.4844V114.024H99.9724V108.71Z" fill="#FAFAFA"/>
<path d="M140.068 84.7983H127.58V90.1127H140.068V84.7983Z" fill="#FAFAFA"/>
<path d="M61.7297 81.2811H49.2417V86.5955H61.7297V81.2811Z" fill="#FAFAFA"/>
<path d="M123.037 58.5734H110.549V63.8878H123.037V58.5734Z" fill="#FAFAFA"/>
<path d="M132.514 77.406H120.026V82.7204H132.514V77.406Z" fill="#FAFAFA"/>
<path d="M147.623 77.406H135.135V82.7204H147.623V77.406Z" fill="#FAFAFA"/>
<path d="M204.344 178.368H191.856V183.683H204.344V178.368Z" fill="#FAFAFA"/>
<path d="M211.898 170.976H199.41V176.291H211.898V170.976Z" fill="#FAFAFA"/>
<path d="M64.1545 115.43H51.6665V120.744H64.1545V115.43Z" fill="#FAFAFA"/>
<path d="M49.0398 115.43H36.5518V120.744H49.0398V115.43Z" fill="#FAFAFA"/>
<path d="M71.7087 122.828H59.2207V128.142H71.7087V122.828Z" fill="#FAFAFA"/>
<path d="M56.5944 122.828H44.1064V128.142H56.5944V122.828Z" fill="#FAFAFA"/>
<path d="M87.8635 143.285H75.3755V148.599H87.8635V143.285Z" fill="#FAFAFA"/>
<path d="M72.7546 143.285H60.2666V148.599H72.7546V143.285Z" fill="#FAFAFA"/>
<path d="M57.6413 143.285H45.1533V148.599H57.6413V143.285Z" fill="#FAFAFA"/>
<path d="M42.5324 143.285H30.0444V148.599H42.5324V143.285Z" fill="#FAFAFA"/>
<path d="M95.4182 150.682H82.9302V155.996H95.4182V150.682Z" fill="#FAFAFA"/>
<path d="M80.3093 150.682H67.8213V155.997H80.3093V150.682Z" fill="#FAFAFA"/>
<path d="M50.0866 150.682H37.5986V155.997H50.0866V150.682Z" fill="#FAFAFA"/>
<path d="M102.973 158.074H90.4849V163.388H102.973V158.074Z" fill="#FAFAFA"/>
<path d="M87.8635 158.074H75.3755V163.388H87.8635V158.074Z" fill="#FAFAFA"/>
<path d="M72.7546 158.074H60.2666V163.388H72.7546V158.074Z" fill="#FAFAFA"/>
<path d="M95.4182 165.472H82.9302V170.786H95.4182V165.472Z" fill="#FAFAFA"/>
<path d="M80.3093 165.472H67.8213V170.786H80.3093V165.472Z" fill="#FAFAFA"/>
<path d="M65.2019 165.472H52.7139V170.786H65.2019V165.472Z" fill="#FAFAFA"/>
<path d="M190.081 142.943H177.593V148.257H190.081V142.943Z" fill="#FAFAFA"/>
<path d="M158.173 142.943H145.685V148.257H158.173V142.943Z" fill="#FAFAFA"/>
<path d="M143.064 142.943H130.576V148.257H143.064V142.943Z" fill="#FAFAFA"/>
<path d="M197.641 150.341H185.153V155.655H197.641V150.341Z" fill="#FAFAFA"/>
<path d="M165.728 150.341H153.24V155.655H165.728V150.341Z" fill="#FAFAFA"/>
<path d="M150.618 150.34H138.13V155.655H150.618V150.34Z" fill="#FAFAFA"/>
<path d="M135.509 150.341H123.021V155.655H135.509V150.341Z" fill="#FAFAFA"/>
<path d="M205.195 157.732H192.707V163.047H205.195V157.732Z" fill="#FAFAFA"/>
<path d="M190.081 157.732H177.593V163.047H190.081V157.732Z" fill="#FAFAFA"/>
<path d="M158.173 157.732H145.685V163.047H158.173V157.732Z" fill="#FAFAFA"/>
<path d="M143.064 157.732H130.576V163.047H143.064V157.732Z" fill="#FAFAFA"/>
<path d="M180.835 165.13H168.347V170.444H180.835V165.13Z" fill="#FAFAFA"/>
<path d="M165.728 165.13H153.24V170.444H165.728V165.13Z" fill="#FAFAFA"/>
<path d="M150.618 165.13H138.13V170.444H150.618V165.13Z" fill="#FAFAFA"/>
<path d="M135.509 165.13H123.021V170.444H135.509V165.13Z" fill="#FAFAFA"/>
<path d="M162.977 118.202H216.916V56.507L162.977 56.507V118.202Z" fill="#E0E0E0"/>
<path d="M163.079 118.202H214.94V56.507L163.079 56.507V118.202Z" fill="#E0E0E0"/>
<path d="M161.292 118.202H215.231V56.507L161.292 56.507V118.202Z" fill="#F0F0F0"/>
<path d="M163.744 115.363H212.879V58.4669L163.744 58.4669V115.363Z" fill="white"/>
<path d="M163.745 115.363H165.279V58.4669H163.745V115.363Z" fill="#E0E0E0"/>
<path d="M165.117 99.3861V100.921H213.019V99.3861H165.117Z" fill="#E0E0E0"/>
<path d="M163.744 99.3806H213.701V96.8046H163.744V99.3806Z" fill="#F0F0F0"/>
<path d="M49.2253 118.202H103.165L103.165 56.507L49.2253 56.507L49.2253 118.202Z" fill="#E0E0E0"/>
<path d="M49.3303 118.202H101.192L101.192 56.507L49.3303 56.507L49.3303 118.202Z" fill="#E0E0E0"/>
<path d="M47.5452 118.202H101.484L101.484 56.507L47.5452 56.507L47.5452 118.202Z" fill="#F0F0F0"/>
<path d="M49.9916 115.363H99.126V58.467L49.9916 58.467L49.9916 115.363Z" fill="white"/>
<path d="M49.992 115.363H51.5264L51.5264 58.4669H49.992L49.992 115.363Z" fill="#E0E0E0"/>
<path d="M51.3638 99.3805V100.915H99.2662V99.3805H51.3638Z" fill="#E0E0E0"/>
<path d="M49.9921 99.3806H99.9497V96.8046H49.9921V99.3806Z" fill="#F0F0F0"/>
<path d="M129.919 209.073C189.885 209.073 238.497 206.235 238.497 202.734C238.497 199.233 189.885 196.395 129.919 196.395C69.9525 196.395 21.3403 199.233 21.3403 202.734C21.3403 206.235 69.9525 209.073 129.919 209.073Z" fill="#F5F5F5"/>
<path d="M39.9731 188.269C39.9731 188.269 39.2003 182.574 35.5547 181.953C31.9091 181.331 33.0067 178.593 32.0603 177.506C31.1139 176.42 28.6331 179.584 30.7555 182.636C32.8779 185.688 31.1419 184.725 32.0603 187.558C32.9787 190.392 40.3203 192.996 39.9731 188.269Z" fill="#263238"/>
<path opacity="0.2" d="M39.9731 188.269C39.9731 188.269 39.2003 182.574 35.5547 181.953C31.9091 181.331 33.0067 178.593 32.0603 177.506C31.1139 176.42 28.6331 179.584 30.7555 182.636C32.8779 185.688 31.1419 184.725 32.0603 187.558C32.9787 190.392 40.3203 192.996 39.9731 188.269Z" fill="white"/>
<path d="M39.8204 192.223C39.7728 192.224 39.726 192.211 39.6853 192.186C39.6447 192.162 39.6119 192.126 39.5908 192.083C39.5908 192.022 36.7908 186.097 38.2468 176.655C38.7182 173.955 39.4689 171.31 40.4868 168.765C42.2508 163.96 43.6396 160.163 40.4588 153.23C39.4508 151.035 38.4204 148.991 37.4236 147.014C33.6828 139.589 30.7316 133.726 32.9436 127.784C32.9674 127.722 33.015 127.671 33.0759 127.644C33.1367 127.617 33.206 127.615 33.2684 127.638C33.3 127.648 33.3292 127.665 33.3542 127.687C33.3792 127.708 33.3994 127.735 33.4136 127.765C33.4278 127.795 33.4357 127.828 33.4367 127.861C33.4377 127.894 33.4319 127.927 33.4196 127.958C31.2972 133.692 34.2092 139.471 37.8996 146.785C38.8964 148.767 39.9268 150.817 40.9404 153.018C44.2108 160.141 42.7156 164.218 40.9852 168.938C39.9651 171.45 39.2142 174.063 38.7452 176.734C37.306 186.007 40.022 191.803 40.05 191.854C40.0788 191.914 40.0827 191.983 40.0606 192.046C40.0386 192.109 39.9925 192.161 39.9324 192.19C39.8979 192.209 39.8597 192.22 39.8204 192.223Z" fill="#263238"/>
<path d="M37.7199 190.84C37.7199 190.84 35.3623 187.289 38.7615 185.464C42.1607 183.638 42.8439 185.111 44.9215 183.784C46.9991 182.457 48.6175 179.304 48.9759 181.325C49.3343 183.347 46.9095 184.523 47.7663 185.453C48.6231 186.382 42.0711 192.43 37.7199 190.84Z" fill="#263238"/>
<path d="M32.1601 130.836C32.1601 130.836 29.8697 123.864 35.0889 123.718C40.3081 123.573 34.5513 130.091 32.1601 130.836Z" fill="#263238"/>
<path d="M36.6948 136.201C36.6948 136.201 38.2516 129.856 41.9532 131.194C45.6548 132.533 40.3852 136.318 36.6948 136.201Z" fill="#263238"/>
<path d="M30.4125 136.75C30.4125 136.75 30.9725 131.71 27.0525 131.586C23.1325 131.463 24.8573 135.96 30.4125 136.75Z" fill="#263238"/>
<path d="M33.0391 147.07C33.0391 147.07 27.7639 142.366 25.8655 145.866C23.9671 149.366 29.8359 150.094 33.0391 147.07Z" fill="#263238"/>
<path d="M42.3569 146.236C42.3569 146.236 43.3481 138.396 47.6097 140.877C51.8713 143.357 46.0697 147.02 42.3569 146.236Z" fill="#263238"/>
<path d="M46.1096 157.419C46.1096 157.419 42.9624 149.529 48.8088 150.419C54.6552 151.31 50.2368 155.504 46.1096 157.419Z" fill="#263238"/>
<path d="M37.138 160.236C37.138 160.236 32.2044 154.44 28.43 156.266C24.6556 158.091 27.7412 163.887 37.138 160.236Z" fill="#263238"/>
<path d="M41.6182 173.121C41.6182 173.121 45.8238 163.781 49.5646 166.928C53.3054 170.075 47.179 174.779 41.6182 173.121Z" fill="#263238"/>
<path d="M35.5081 172.573C35.5081 172.573 36.6281 165.326 32.4561 165.909C28.2841 166.491 29.3873 170.926 35.5081 172.573Z" fill="#263238"/>
<g opacity="0.2">
<path d="M32.1596 130.836C32.1596 130.836 29.8692 123.864 35.0884 123.719C40.3076 123.573 34.5508 130.091 32.1596 130.836Z" fill="white"/>
<path d="M36.6943 136.201C36.6943 136.201 38.2511 129.856 41.9527 131.194C45.6543 132.533 40.3847 136.318 36.6943 136.201Z" fill="white"/>
<path d="M30.412 136.75C30.412 136.75 30.972 131.71 27.052 131.587C23.132 131.463 24.8568 135.96 30.412 136.75Z" fill="white"/>
<path d="M33.0386 147.07C33.0386 147.07 27.7634 142.366 25.865 145.866C23.9666 149.366 29.8354 150.094 33.0386 147.07Z" fill="white"/>
<path d="M42.3564 146.236C42.3564 146.236 43.3476 138.396 47.6092 140.877C51.8708 143.358 46.0692 147.02 42.3564 146.236Z" fill="white"/>
<path d="M46.1091 157.419C46.1091 157.419 42.9619 149.529 48.8083 150.419C54.6547 151.31 50.2363 155.504 46.1091 157.419Z" fill="white"/>
<path d="M37.1375 160.236C37.1375 160.236 32.2039 154.44 28.4295 156.266C24.6551 158.091 27.7407 163.887 37.1375 160.236Z" fill="white"/>
<path d="M41.6177 173.122C41.6177 173.122 45.8233 163.781 49.5641 166.928C53.3049 170.075 47.1785 174.779 41.6177 173.122Z" fill="white"/>
<path d="M35.5076 172.573C35.5076 172.573 36.6276 165.326 32.4556 165.909C28.2836 166.491 29.3868 170.926 35.5076 172.573Z" fill="white"/>
</g>
<path d="M34.4225 140.395C34.3799 140.395 34.3378 140.386 34.2993 140.367C31.2081 138.637 28.9849 135.367 28.8953 135.232C28.8763 135.205 28.863 135.174 28.856 135.141C28.8491 135.108 28.8488 135.075 28.855 135.042C28.8613 135.009 28.874 134.978 28.8925 134.95C28.9109 134.922 28.9347 134.898 28.9625 134.879C29.0185 134.842 29.0867 134.829 29.1525 134.841C29.2184 134.854 29.2768 134.892 29.3153 134.947C30.6575 136.869 32.3572 138.516 34.3217 139.796C34.7921 138.923 36.4889 135.91 37.9057 135.059C37.9629 135.024 38.0316 135.013 38.0967 135.029C38.1289 135.036 38.1593 135.051 38.1861 135.07C38.2129 135.09 38.2356 135.114 38.2529 135.143C38.2702 135.171 38.2817 135.202 38.2869 135.235C38.292 135.268 38.2906 135.301 38.2828 135.334C38.275 135.366 38.2609 135.396 38.2414 135.423C38.2219 135.45 38.1972 135.472 38.1689 135.49C36.6625 136.391 34.6633 140.222 34.6465 140.261C34.6308 140.291 34.6093 140.317 34.5833 140.338C34.5574 140.359 34.5274 140.375 34.4953 140.384C34.4721 140.393 34.4473 140.397 34.4225 140.395Z" fill="#263238"/>
<path d="M39.1995 150.089C39.1448 150.09 39.0913 150.072 39.0483 150.038C34.6523 146.718 29.0355 146.858 28.9683 146.858C28.9017 146.856 28.8379 146.831 28.7893 146.785C28.7407 146.74 28.7107 146.678 28.7051 146.611C28.7044 146.578 28.7102 146.545 28.7222 146.514C28.7341 146.483 28.7521 146.455 28.775 146.431C28.7979 146.407 28.8252 146.388 28.8555 146.375C28.8858 146.362 28.9184 146.354 28.9515 146.354C29.0075 146.354 34.6131 146.208 39.1155 149.467C39.7035 148.532 41.9603 145.133 44.8611 143.425C44.9191 143.391 44.9882 143.381 45.0533 143.398C45.1184 143.414 45.1742 143.456 45.2083 143.514C45.2425 143.572 45.2523 143.641 45.2354 143.707C45.2186 143.772 45.1767 143.827 45.1187 143.862C41.9211 145.743 39.4291 149.921 39.4067 149.966C39.3883 149.996 39.3638 150.022 39.3349 150.042C39.306 150.062 39.2733 150.076 39.2387 150.083L39.1995 150.089Z" fill="#263238"/>
<path d="M42.2506 162.896C42.2055 162.896 42.1611 162.885 42.1218 162.862C42.0602 162.823 35.637 159.133 30.9946 159.043C30.9335 159.034 30.8777 159.003 30.8374 158.957C30.7971 158.91 30.7749 158.85 30.7749 158.788C30.7749 158.727 30.7971 158.667 30.8374 158.62C30.8777 158.573 30.9335 158.543 30.9946 158.534C35.4186 158.623 41.181 161.754 42.1946 162.336C45.1738 159.822 47.5426 153.656 47.565 153.594C47.5756 153.562 47.5926 153.532 47.6151 153.506C47.6376 153.481 47.6651 153.46 47.6959 153.445C47.7267 153.43 47.7602 153.422 47.7943 153.421C47.8284 153.419 47.8625 153.425 47.8944 153.437C47.9263 153.449 47.9554 153.467 47.9799 153.491C48.0045 153.515 48.0239 153.543 48.0371 153.575C48.0503 153.606 48.057 153.64 48.0567 153.674C48.0564 153.709 48.0491 153.742 48.0354 153.774C47.9346 154.037 45.5266 160.314 42.3794 162.84C42.3422 162.87 42.2978 162.889 42.2506 162.896Z" fill="#263238"/>
<path d="M38.5315 176.134C38.4864 176.134 38.4422 176.122 38.4027 176.101C35.9779 174.712 32.8419 168.636 32.7131 168.378C32.6819 168.319 32.6756 168.249 32.6955 168.185C32.7155 168.121 32.7601 168.068 32.8195 168.037C32.8789 168.005 32.9483 167.999 33.0123 168.019C33.0764 168.039 33.1299 168.083 33.1611 168.143C33.1611 168.205 36.1907 174.023 38.4699 175.546C40.3251 173.38 42.7803 171.811 45.5259 171.038C45.5897 171.019 45.6586 171.026 45.7174 171.057C45.7762 171.089 45.8201 171.142 45.8395 171.206C45.8588 171.271 45.8521 171.34 45.8207 171.4C45.7893 171.46 45.7357 171.505 45.6715 171.525C42.9577 172.277 40.5386 173.84 38.7387 176.005C38.7171 176.042 38.687 176.073 38.6509 176.095C38.6148 176.118 38.5738 176.131 38.5315 176.134Z" fill="#263238"/>
<path d="M38.0787 189.989C38.0787 189.989 36.0571 186.774 33.7779 186.315C31.4987 185.856 30.5131 183.229 29.6731 184.809C28.8331 186.388 31.1515 191.629 38.0787 189.989Z" fill="#263238"/>
<path d="M29.8531 202.606H46.6979L47.8235 189.003H28.7275L29.8531 202.606Z" fill="#0A0A0A"/>
<path d="M28.3296 191.579H48.2152L48.4728 188.695H28.0776L28.3296 191.579Z" fill="#0A0A0A"/>
<path opacity="0.3" d="M28.3296 191.579H48.2152L48.4728 188.695H28.0776L28.3296 191.579Z" fill="white"/>
<path d="M146.984 86.3553L146.133 86.5177C146.066 86.5223 146 86.5072 145.941 86.4742C145.883 86.4412 145.836 86.3918 145.805 86.3321C145.775 86.2724 145.763 86.2051 145.77 86.1385C145.778 86.072 145.805 86.0091 145.848 85.9577H145.881C145.64 86.0641 145.4 86.1705 145.148 86.2657C145.127 86.6387 145.127 87.0126 145.148 87.3857L150.641 115.8L130.179 119.765C130.185 119.806 130.185 119.847 130.179 119.888C130.17 119.977 130.127 120.059 130.059 120.116C129.991 120.174 129.904 120.202 129.815 120.196C129.484 120.135 129.148 120.073 128.812 120.028L101.72 125.281C101.715 125.328 101.7 125.374 101.675 125.415C101.573 125.587 101.458 125.752 101.333 125.908C101.349 126.008 101.337 126.111 101.3 126.205C101.09 126.833 100.818 127.439 100.488 128.014C100.38 128.165 100.221 128.271 100.04 128.31C99.9217 128.335 99.7993 128.325 99.6867 128.283C99.5584 128.559 99.4643 128.851 99.4067 129.15L142.818 120.75L142.857 120.7C143.11 120.461 143.41 120.278 143.738 120.161C144.066 120.044 144.414 119.997 144.761 120.023C145.008 119.733 145.301 119.487 145.629 119.294C145.777 119.197 145.946 119.139 146.122 119.124C146.299 119.11 146.475 119.139 146.637 119.21C146.852 119.338 147.016 119.536 147.102 119.77C147.529 119.718 147.959 119.688 148.39 119.681L154.55 118.483L148.53 87.4417C147.934 87.211 147.403 86.838 146.984 86.3553Z" fill="#0A0A0A"/>
<path d="M90.8667 45.7496L91.0683 45.7888L95.1171 45.0048C95.5651 44.8088 96.0075 44.6016 96.4387 44.4168C97.2534 44.0317 98.1288 43.791 99.0259 43.7056C99.5608 43.6809 100.095 43.7608 100.6 43.9408L135.42 37.1928L138.652 53.8472C138.689 53.7938 138.741 53.7523 138.802 53.7275C138.862 53.7028 138.928 53.6959 138.993 53.7077C139.057 53.7195 139.116 53.7495 139.164 53.794C139.212 53.8386 139.246 53.8959 139.262 53.9592C139.45 54.6915 139.551 55.4433 139.564 56.1992C139.547 56.5622 139.463 56.919 139.318 57.252L144.812 85.6048C145.142 85.4816 145.467 85.3472 145.792 85.2016C145.824 85.0064 145.896 84.8198 146.003 84.6532C146.109 84.4866 146.249 84.3436 146.413 84.2328C146.648 84.1218 146.915 84.1019 147.164 84.1768C147.293 83.8829 147.387 83.5746 147.444 83.2584C147.522 82.8734 147.558 82.4809 147.55 82.088L147.332 80.94C147.332 80.8784 147.281 80.8224 147.253 80.7664C147.23 80.7234 147.218 80.6753 147.218 80.6264C147.218 80.5776 147.23 80.5295 147.253 80.4864L141.474 50.6832C141.441 50.6886 141.407 50.6886 141.373 50.6832C141.171 50.7048 140.966 50.6708 140.782 50.585C140.597 50.4992 140.44 50.3647 140.326 50.196C140.167 49.8695 140.118 49.5001 140.186 49.1432C140.242 48.7232 140.348 48.3088 140.432 47.8944C140.523 47.5284 140.549 47.1495 140.511 46.7744C140.497 46.711 140.504 46.645 140.53 46.5856C140.556 46.5263 140.6 46.4768 140.656 46.444L138.092 33.2224L87.8763 43C86.9438 43.5424 85.8806 43.8193 84.8019 43.8008C84.751 43.7976 84.7016 43.7815 84.6585 43.7541C84.6155 43.7267 84.58 43.6888 84.5555 43.644L59.6411 48.4768C59.6265 48.5416 59.5941 48.6011 59.5476 48.6485C59.5012 48.696 59.4424 48.7296 59.3779 48.7456L58.0675 48.9976C58.0624 49.1967 58.0023 49.3905 57.8939 49.5576C57.885 49.6358 57.847 49.7077 57.7875 49.7592C57.7015 49.8295 57.6193 49.9043 57.5411 49.9832C57.3899 50.1232 57.2443 50.2744 57.0875 50.4088C57.0342 50.46 56.9687 50.4966 56.8971 50.5152C56.8388 50.5253 56.7788 50.5203 56.723 50.5007C56.6671 50.4811 56.6172 50.4475 56.5779 50.4032C56.52 50.3345 56.4901 50.2466 56.4939 50.1568C56.4907 50.1252 56.4907 50.0933 56.4939 50.0616C56.2923 50.0616 56.0907 50.0616 55.8947 50.0112C55.8066 50.0013 55.7256 49.9581 55.6684 49.8904C55.6111 49.8228 55.5819 49.7357 55.5867 49.6472C55.5939 49.559 55.6355 49.4772 55.7026 49.4196C55.7697 49.3619 55.8569 49.333 55.9451 49.3392C56.1566 49.3699 56.3699 49.3868 56.5835 49.3896H56.7515C56.7757 49.3924 56.8001 49.3924 56.8243 49.3896C56.6597 49.3661 56.5088 49.2847 56.3987 49.16C56.397 49.1451 56.397 49.1301 56.3987 49.1152L41.9731 51.9152C42.0398 51.916 42.1052 51.9333 42.1635 51.9656C42.2356 52.0165 42.2852 52.0933 42.3019 52.18C42.3186 52.2666 42.3011 52.3564 42.2531 52.4304C42.1377 52.5839 42.0084 52.7263 41.8667 52.856L41.8275 52.9008C41.8275 52.8728 41.8611 52.9008 41.8275 52.9008C41.8034 52.9293 41.7809 52.9592 41.7603 52.9904C41.7603 52.9904 41.7603 53.0352 41.7603 53.052C41.7577 53.0706 41.7577 53.0894 41.7603 53.108C41.7577 53.1191 41.7577 53.1306 41.7603 53.1416C41.753 53.1992 41.7314 53.2541 41.6974 53.3011C41.6634 53.3482 41.6182 53.386 41.5658 53.4111C41.5134 53.4361 41.4556 53.4477 41.3976 53.4446C41.3397 53.4416 41.2834 53.424 41.2339 53.3936C41.2041 53.3775 41.172 53.3662 41.1387 53.36C41.1041 53.3463 41.0685 53.3351 41.0323 53.3264C41.0333 53.4842 40.9907 53.6393 40.9091 53.7744C40.8772 53.821 40.8333 53.858 40.782 53.8817C40.7308 53.9053 40.6741 53.9147 40.6179 53.9088C40.5617 54.224 40.4558 54.5283 40.3043 54.8104C40.1353 55.0986 39.906 55.3469 39.6323 55.5384C39.6865 55.6111 39.7316 55.6901 39.7667 55.7736L61.2147 51.6184V51.5848C61.3057 51.4325 61.4233 51.2978 61.5619 51.1872C61.6539 51.119 61.7603 51.0729 61.873 51.0525C61.9856 51.0321 62.1015 51.038 62.2115 51.0696C62.3876 51.1241 62.5525 51.2094 62.6987 51.3216L90.4691 45.94C90.5013 45.8657 90.5593 45.8055 90.6323 45.7705C90.7054 45.7355 90.7886 45.7281 90.8667 45.7496Z" fill="#0A0A0A"/>
<path d="M53.5201 134.638L48.4801 108.682C48.4359 108.733 48.3775 108.769 48.3127 108.786C48.2478 108.803 48.1793 108.8 48.1161 108.778C48.0324 108.748 47.9636 108.687 47.9248 108.607C47.886 108.528 47.8803 108.436 47.9089 108.352C47.9927 108.106 48.1198 107.876 48.2841 107.674L41.6817 73.5648L41.6201 73.4584C41.4858 73.1815 41.3897 72.8876 41.3345 72.5848C41.2189 72.5763 41.1029 72.5763 40.9873 72.5848C40.9365 72.5933 40.8845 72.5903 40.8351 72.5759C40.7857 72.5615 40.7401 72.5361 40.7019 72.5017C40.6637 72.4672 40.6337 72.4245 40.6143 72.3769C40.5949 72.3292 40.5865 72.2778 40.5897 72.2264C40.5831 71.5803 40.7494 70.9442 41.0713 70.384L38.3945 56.5856C38.3498 56.512 38.3105 56.4353 38.2769 56.356L38.1425 56.104C38.0875 56.1026 38.0339 56.0862 37.9875 56.0566C37.9412 56.027 37.9037 55.9853 37.8793 55.936C37.8404 55.8565 37.8344 55.7648 37.8628 55.6809C37.8911 55.597 37.9514 55.5277 38.0305 55.488C38.1704 55.4337 38.298 55.3518 38.4057 55.2472C38.482 55.1603 38.5443 55.062 38.5905 54.956C38.6785 54.7193 38.7258 54.4693 38.7305 54.2168C38.6464 54.1028 38.5855 53.9735 38.5513 53.836C38.5259 53.6479 38.5431 53.4565 38.6017 53.276C38.6136 53.2288 38.6388 53.186 38.6745 53.1528C38.6745 52.94 38.6409 52.7272 38.6297 52.5144L34.3457 53.3432L46.5705 116.41C46.6315 116.378 46.7025 116.369 46.7697 116.385C46.8369 116.402 46.8956 116.443 46.9345 116.5C47.2511 116.843 47.4253 117.293 47.4217 117.76C47.4049 117.852 47.3786 117.942 47.3433 118.029C47.3998 118.07 47.4413 118.128 47.4615 118.195C47.4818 118.261 47.4796 118.333 47.4553 118.398C47.2915 118.719 47.2383 119.086 47.3041 119.44C47.3744 119.773 47.4699 120.101 47.5897 120.42C47.8009 120.956 47.8285 121.547 47.6681 122.1L50.8601 138.581L51.7673 138.402C52.2773 138.233 52.7972 138.097 53.3241 137.993C53.3162 137.954 53.3166 137.914 53.3253 137.875C53.334 137.837 53.3507 137.8 53.3745 137.769C53.5076 137.615 53.6497 137.469 53.8001 137.332C53.7861 137.275 53.7861 137.215 53.8001 137.158C53.8941 136.771 54.1124 136.425 54.4217 136.173C54.7023 135.966 55.0487 135.868 55.3961 135.898C55.7308 135.941 56.052 136.056 56.3367 136.237C56.6214 136.418 56.8624 136.66 57.0425 136.946C57.9609 136.722 58.9521 136.386 59.8425 136.839L94.6521 130.119C94.6627 130.028 94.6814 129.938 94.7081 129.85C94.8504 129.397 95.116 128.991 95.4753 128.68C95.529 128.634 95.5961 128.606 95.6667 128.601C95.7372 128.596 95.8076 128.614 95.8673 128.652C95.8944 128.608 95.9322 128.572 95.9773 128.546C96.0224 128.521 96.0732 128.508 96.1249 128.508C96.1766 128.508 96.2274 128.521 96.2725 128.546C96.3176 128.572 96.3554 128.608 96.3825 128.652L96.5225 128.82L96.5841 128.876L96.6905 128.949L96.8081 129.005C96.7017 128.681 96.7017 128.332 96.8081 128.008C96.8737 127.826 96.9761 127.659 97.1091 127.519C97.2421 127.378 97.4027 127.266 97.5809 127.19C97.5477 127.146 97.5264 127.093 97.519 127.038C97.5115 126.983 97.5182 126.926 97.5383 126.874C97.5584 126.823 97.5913 126.776 97.634 126.741C97.6767 126.705 97.7278 126.68 97.7825 126.67C97.8554 126.661 97.9293 126.675 97.9932 126.712C98.0571 126.748 98.1075 126.804 98.1371 126.871C98.1666 126.939 98.1737 127.014 98.1572 127.085C98.1408 127.157 98.1017 127.221 98.0457 127.269L98.0849 127.314C98.1238 127.393 98.1297 127.485 98.1014 127.569C98.0731 127.653 98.0128 127.722 97.9337 127.762L97.8049 127.823L97.7321 127.862L97.6929 127.89L97.6033 127.969L97.5697 128.008L97.5137 128.092V128.126C97.501 128.155 97.4898 128.185 97.4801 128.215C97.5915 128.068 97.7213 127.937 97.8665 127.823C97.9637 127.756 98.0691 127.701 98.1801 127.661C98.4545 127.056 98.7121 126.44 98.9697 125.835L53.5201 134.638Z" fill="#0A0A0A"/>
<path d="M61.7958 108.52C61.8554 108.454 61.9254 108.4 62.003 108.357L72.1166 88.3765L67.4686 89.2781L63.3918 97.2581C63.4172 97.264 63.4417 97.2734 63.4646 97.2861C63.5366 97.337 63.5862 97.4138 63.6029 97.5004C63.6196 97.5871 63.6021 97.6768 63.5542 97.7509C63.459 97.8909 63.3862 98.0421 63.3022 98.1877C63.375 98.2325 63.4422 98.2885 63.515 98.3277C63.5701 98.3651 63.6129 98.4181 63.6378 98.48C63.6627 98.5418 63.6687 98.6096 63.655 98.6749C63.6412 98.7395 63.6091 98.7987 63.5624 98.8455C63.5156 98.8922 63.4564 98.9243 63.3918 98.9381L63.2798 98.9997H63.2518H63.2182L62.9998 99.1005H62.9494L62.871 99.1621L62.6974 99.3133L62.6078 99.4085L62.5686 99.4533L62.4118 99.6549C62.2998 99.8061 62.199 99.9629 62.0926 100.12C62.0406 100.193 61.9623 100.243 61.8742 100.26L55.9102 111.941L56.4702 114.954L59.119 114.439C59.2039 114.188 59.3457 113.96 59.5334 113.772C59.6221 113.689 59.7197 113.616 59.8246 113.554C59.8218 113.534 59.8218 113.513 59.8246 113.492C59.9501 112.136 60.3912 110.828 61.1126 109.673C61.0766 109.617 61.0575 109.552 61.0575 109.486C61.0575 109.419 61.0766 109.354 61.1126 109.298C61.2039 109.139 61.2394 108.953 61.2134 108.772C61.214 108.705 61.2341 108.639 61.2713 108.583C61.3084 108.527 61.361 108.483 61.4227 108.456C61.4843 108.43 61.5524 108.422 61.6186 108.433C61.6848 108.444 61.7464 108.474 61.7958 108.52Z" fill="#0A0A0A"/>
<path d="M79.2173 106.744C79.2115 106.828 79.1886 106.91 79.1501 106.985C78.9841 107.31 78.714 107.571 78.3829 107.724C78.3157 107.825 78.2429 107.92 78.1813 108.016C78.1451 108.067 78.0944 108.106 78.0357 108.128C78.0357 108.178 77.9965 108.234 77.9853 108.284C77.9722 108.328 77.9503 108.368 77.9211 108.403C77.8919 108.438 77.856 108.466 77.8154 108.487C77.7749 108.507 77.7306 108.52 77.6852 108.522C77.6399 108.525 77.5944 108.519 77.5516 108.504C77.5088 108.489 77.4695 108.465 77.4361 108.434C77.4026 108.403 77.3758 108.366 77.3572 108.325C77.3386 108.283 77.3286 108.238 77.3278 108.193C77.327 108.148 77.3354 108.103 77.3525 108.06C77.4076 107.868 77.4788 107.681 77.5653 107.5L77.2461 107.562C77.1595 107.577 77.0704 107.558 76.9973 107.509C76.9243 107.46 76.873 107.385 76.8541 107.299C76.8456 107.273 76.8456 107.246 76.8541 107.22L76.6581 107.26L75.3925 100.68L71.3493 101.464L72.6149 108.004L62.6077 109.942C62.5405 109.976 62.4789 110.026 62.4117 110.065V110.11C62.4364 110.182 62.4357 110.261 62.4097 110.333C62.3837 110.405 62.334 110.466 62.2687 110.505C62.2035 110.545 62.1266 110.562 62.0508 110.552C61.975 110.542 61.9048 110.507 61.8517 110.452C61.6651 110.612 61.4945 110.79 61.3421 110.984C61.4006 110.967 61.4626 110.967 61.521 110.984C61.5794 111.001 61.6319 111.034 61.6725 111.079C61.7037 111.11 61.7284 111.146 61.7453 111.187C61.7622 111.227 61.7709 111.27 61.7709 111.314C61.7709 111.358 61.7622 111.401 61.7453 111.441C61.7284 111.482 61.7037 111.518 61.6725 111.549L61.4037 111.773C61.4378 111.83 61.4558 111.895 61.4558 111.961C61.4558 112.027 61.4378 112.092 61.4037 112.148V112.188C61.401 112.208 61.401 112.229 61.4037 112.249C61.4037 112.328 61.4037 112.412 61.4037 112.496C61.392 112.646 61.3264 112.787 61.2189 112.893C61.0968 112.998 60.9472 113.066 60.7877 113.089H60.7485C60.7642 113.257 60.7885 113.423 60.8213 113.588C60.8975 113.74 60.9575 113.899 61.0005 114.064L73.2589 111.689L74.6365 119.16L78.8141 118.353L77.3805 110.95L83.0981 109.83L82.3813 106.134L79.2173 106.744Z" fill="#0A0A0A"/>
<path d="M103.488 86.5844L103.219 86.8196C103.09 86.9316 102.967 87.0436 102.849 87.1612L102.698 87.3292L102.614 87.43C102.518 87.5696 102.375 87.6695 102.21 87.7113C102.046 87.7532 101.872 87.734 101.721 87.6574C101.57 87.5808 101.452 87.4519 101.388 87.2948C101.325 87.1376 101.321 86.9628 101.377 86.8028L101.533 86.2092C101.533 86.2092 101.489 86.1644 101.472 86.1308C101.426 86.0466 101.403 85.9521 101.405 85.8564C101.394 85.7654 101.405 85.6731 101.438 85.5876C101.438 85.5204 101.489 85.4532 101.517 85.386C101.394 85.2673 101.292 85.1292 101.214 84.9772V84.9324C98.8522 83.69 96.1287 83.3174 93.5198 83.8796C86.4638 85.246 82.3198 91.8596 84.2014 101.665C86.083 111.471 92.4334 116.052 99.4894 114.685C100.123 114.564 100.747 114.394 101.354 114.176C101.55 113.896 101.746 113.616 101.914 113.341C101.981 113.245 102.07 113.168 102.175 113.115C102.279 113.063 102.395 113.038 102.512 113.043C102.628 113.047 102.742 113.081 102.842 113.141C102.942 113.201 103.026 113.285 103.085 113.386C107.828 110.743 110.292 104.88 108.746 96.9052C107.867 92.2796 105.974 88.8076 103.488 86.5844ZM98.7501 110.86C94.0181 111.779 89.9973 108.542 88.5021 100.836C87.0069 93.1308 89.527 88.6284 94.259 87.7156C95.5023 87.4468 96.7953 87.521 97.9997 87.9304C99.2041 88.3398 100.275 89.0688 101.097 90.0396C101.176 89.983 101.265 89.9413 101.36 89.9164C101.543 89.8834 101.732 89.9236 101.886 90.0283C102.04 90.133 102.146 90.2939 102.183 90.4764C102.242 90.8317 102.252 91.1936 102.211 91.5516C103.322 93.4533 104.081 95.5401 104.451 97.7116C105.957 105.445 103.437 109.953 98.7501 110.86Z" fill="#0A0A0A"/>
<path d="M134.148 96.0989L132.882 89.5581L128.833 90.3421L130.104 96.8829L118.529 99.1229L129.6 77.2493L124.952 78.1453L120.792 86.2989C120.752 87.3168 120.546 88.3214 120.181 89.2725C120.156 89.3354 120.112 89.3892 120.055 89.4271C119.999 89.465 119.933 89.4853 119.865 89.4853C119.797 89.4853 119.73 89.465 119.674 89.4271C119.618 89.3892 119.574 89.3354 119.548 89.2725C119.437 90.1404 119.029 90.9433 118.395 91.5461C118.353 91.5846 118.302 91.6108 118.247 91.6217C118.191 91.6326 118.134 91.6277 118.081 91.6077L113.372 100.836L113.932 103.849L120.898 102.5C121.492 102.027 122.195 101.71 122.942 101.576C123.598 101.424 124.268 101.336 124.941 101.312C125.446 101.274 125.954 101.312 126.448 101.424L130.67 100.607L132.104 108.004L136.276 107.198L134.842 99.8005L140.565 98.6805L139.848 94.9845L134.148 96.0989Z" fill="#0A0A0A"/>
<path d="M57.1758 78.1733L56.515 74.7685L63.347 73.4469L62.8318 70.7981L55.9998 72.1197L55.3838 68.9221L63.1174 67.4269L62.5574 64.6941L51.4414 66.8501L52.3934 71.7557C52.5631 71.8423 52.7136 71.9623 52.8358 72.1085C53.047 72.3752 53.1738 72.6989 53.1998 73.0381C53.2726 73.7381 53.099 74.4605 53.1998 75.1381C53.2134 75.1948 53.2101 75.2542 53.1902 75.309C53.1703 75.3637 53.1347 75.4114 53.0878 75.4461L54.3198 81.5613L65.7102 79.3549L65.1838 76.5997L57.1758 78.1733Z" fill="#0A0A0A"/>
<path d="M77.2349 72.2149C78.0613 71.6909 78.7095 70.9289 79.0944 70.0292C79.4793 69.1296 79.5826 68.1344 79.3909 67.1749C79.3344 67.2339 79.2592 67.2715 79.1781 67.2813C79.1125 67.2857 79.0472 67.2705 78.9903 67.2376C78.9334 67.2047 78.8877 67.1556 78.8589 67.0965C78.7824 66.9179 78.7315 66.7294 78.7077 66.5365C78.7077 66.5085 78.7077 66.4861 78.7077 66.4581C78.6041 66.3258 78.5297 66.1731 78.4893 66.0101C78.4758 65.9228 78.4962 65.8337 78.5461 65.7609C78.596 65.6881 78.6718 65.637 78.7581 65.6181C78.7922 65.6093 78.8277 65.6078 78.8624 65.6135C78.8972 65.6193 78.9303 65.6323 78.9597 65.6517C77.8901 63.2605 75.3141 62.1965 71.9429 62.8517L65.5757 64.0837L66.4381 68.5245C66.5062 68.5534 66.5604 68.6076 66.5893 68.6757C67.1312 69.7762 67.4689 70.9658 67.5861 72.1869C67.5995 72.2742 67.5792 72.3633 67.5293 72.4361C67.4793 72.5089 67.4035 72.56 67.3173 72.5789C67.2858 72.5843 67.2536 72.5843 67.2221 72.5789L68.4261 78.8397L71.8309 78.1789L71.0357 74.0853L74.1661 73.4749L77.7949 77.0253L81.4517 76.3141L77.2349 72.2149ZM73.2813 70.8205L70.4813 71.3805L69.4845 66.2565L72.2845 65.6965C74.3621 65.2933 75.5997 66.0325 75.9133 67.6509C76.2269 69.2693 75.3645 70.4397 73.2813 70.8205Z" fill="#0A0A0A"/>
<path d="M92.6858 69.2189C93.54 68.6764 94.2035 67.8809 94.584 66.9433C94.9645 66.0057 95.0428 64.9727 94.8082 63.9885C94.1698 60.6901 91.3194 59.1277 87.3882 59.8893L81.021 61.1269L83.8714 75.8325L87.2762 75.1773L86.481 71.0781L89.6114 70.4677L93.2458 74.0181L96.9026 73.3069L92.6858 69.2189ZM88.7322 67.8301L85.9322 68.3901L84.941 63.2605L87.713 62.7005C87.8866 62.6669 88.0546 62.6445 88.2114 62.6277L88.3178 62.5381C88.3278 62.4542 88.3466 62.3716 88.3738 62.2917C88.4103 62.1945 88.4764 62.1114 88.5629 62.0541C88.6494 61.9968 88.7517 61.9682 88.8554 61.9725C89.0542 61.9922 89.2458 62.0574 89.4154 62.1629C89.4446 62.1277 89.4808 62.0991 89.5218 62.0789C89.5241 61.9714 89.5373 61.8645 89.561 61.7597C89.5936 61.6796 89.6558 61.6152 89.7346 61.5798C89.8134 61.5444 89.9029 61.5408 89.9843 61.5696C90.0658 61.5984 90.133 61.6576 90.172 61.7347C90.211 61.8118 90.2188 61.9009 90.1938 61.9837C90.1266 62.2413 90.2498 62.4709 90.2274 62.7341C90.2197 62.7967 90.2008 62.8574 90.1714 62.9133C90.4862 63.096 90.755 63.3486 90.9569 63.6515C91.1588 63.9544 91.2886 64.2995 91.3362 64.6605C91.6722 66.2565 90.8098 67.4269 88.7322 67.8301Z" fill="#0A0A0A"/>
<path d="M108.796 57.05L108.623 57.0948C108.582 57.1089 108.542 57.1277 108.505 57.1509C108.488 57.1608 108.473 57.1741 108.46 57.19C108.411 57.2492 108.344 57.2921 108.27 57.3132C108.226 57.321 108.182 57.32 108.138 57.3104C108.095 57.3008 108.054 57.2827 108.018 57.2573C107.98 57.2344 107.948 57.2034 107.924 57.1666C107.9 57.1298 107.884 57.0881 107.878 57.0445C107.861 56.9571 107.879 56.8665 107.928 56.7925C107.928 56.7925 107.962 56.7645 107.973 56.7477C106.54 56.2906 105.013 56.2077 103.538 56.5068C98.89 57.4084 96.118 61.3061 96.9636 65.6741C97.8092 70.0421 101.841 72.6236 106.484 71.722C111.126 70.8204 113.909 66.9452 113.058 62.5548C112.849 61.3599 112.351 60.234 111.609 59.2748C110.866 58.3156 109.901 57.5519 108.796 57.05ZM105.929 68.81C104.681 69.0521 103.388 68.7884 102.334 68.0769C101.28 67.3654 100.552 66.2644 100.31 65.0161C100.068 63.7677 100.331 62.4744 101.043 61.4205C101.754 60.3666 102.855 59.6385 104.104 59.3964C104.732 59.2732 105.379 59.2732 106.008 59.3964C106.008 59.318 106.058 59.2397 106.086 59.1725C106.114 59.0963 106.168 59.0329 106.239 58.9938C106.31 58.9547 106.393 58.9425 106.472 58.9596C106.535 58.9706 106.592 59.0008 106.636 59.046C106.68 59.0912 106.709 59.1492 106.719 59.2116L106.915 59.1612C106.96 59.0213 107.004 58.8868 107.044 58.7468C107.083 58.6068 107.088 58.5845 107.105 58.5061C107.117 58.4675 107.127 58.4282 107.133 58.3884V58.3493L107.167 58.1477V58.0748C107.133 57.8508 107.368 57.582 107.609 57.6996L108.276 58.0189C108.358 58.0515 108.425 58.1143 108.462 58.1945C108.499 58.2746 108.505 58.366 108.477 58.45C108.438 58.5335 108.404 58.6196 108.376 58.7077C108.376 58.7357 108.376 58.7693 108.348 58.7973C108.348 58.7973 108.348 58.7972 108.348 58.8364C108.337 58.9706 108.337 59.1055 108.348 59.2396C108.361 59.558 108.342 59.8769 108.292 60.1916C108.308 60.2279 108.316 60.267 108.316 60.3064C108.316 60.3459 108.308 60.385 108.292 60.4212C108.281 60.4595 108.26 60.4942 108.231 60.522C108.963 61.2466 109.454 62.1794 109.636 63.1932C109.789 63.8071 109.813 64.446 109.707 65.0696C109.6 65.6932 109.365 66.2878 109.016 66.8158C108.668 67.3438 108.214 67.7937 107.682 68.137C107.151 68.4802 106.554 68.7094 105.929 68.81Z" fill="#0A0A0A"/>
<path d="M128.05 57.9797C128.031 57.9772 128.012 57.9772 127.994 57.9797C127.86 57.9325 127.737 57.8602 127.63 57.7669C127.579 57.8538 127.521 57.9362 127.456 58.0133C127.404 58.0843 127.328 58.133 127.241 58.1496C127.155 58.1662 127.066 58.1495 126.991 58.1029C126.918 58.0529 126.868 57.976 126.851 57.889C126.834 57.8019 126.852 57.7117 126.902 57.6381C127.232 57.1874 127.441 56.6588 127.507 56.1037C126.387 53.8301 123.861 52.8389 120.574 53.4773L114.207 54.7093L117.04 69.4037L120.445 68.7429L119.65 64.6437L122.78 64.0389L126.415 67.5837L130.071 66.8781L125.855 62.7901C126.649 62.2888 127.279 61.5666 127.669 60.7122C128.059 59.8578 128.191 58.9082 128.05 57.9797ZM121.918 61.3957L119.118 61.9557L118.16 56.8037L120.96 56.2437C123.043 55.8405 124.275 56.5853 124.589 58.2037C124.903 59.8221 123.995 60.9925 121.918 61.3957Z" fill="#0A0A0A"/>
<path d="M98.432 146.97H122.366C123.017 146.97 123.661 147.098 124.262 147.347C124.863 147.596 125.409 147.961 125.869 148.422C126.329 148.882 126.693 149.428 126.942 150.03C127.19 150.631 127.318 151.275 127.317 151.926V160.326C127.318 160.976 127.19 161.621 126.942 162.222C126.693 162.823 126.329 163.37 125.869 163.83C125.409 164.29 124.863 164.655 124.262 164.904C123.661 165.154 123.017 165.282 122.366 165.282H106.462L99.1824 173.066L103.102 165.282H98.4096C97.0952 165.282 95.8346 164.76 94.9052 163.83C93.9758 162.901 93.4536 161.64 93.4536 160.326V151.926C93.4536 151.273 93.5825 150.627 93.833 150.024C94.0835 149.421 94.4505 148.874 94.9131 148.413C95.3757 147.953 95.9247 147.588 96.5286 147.341C97.1324 147.093 97.7793 146.967 98.432 146.97Z" fill="#0A0A0A"/>
<path opacity="0.7" d="M98.432 146.97H122.366C123.017 146.97 123.661 147.098 124.262 147.347C124.863 147.596 125.409 147.961 125.869 148.422C126.329 148.882 126.693 149.428 126.942 150.03C127.19 150.631 127.318 151.275 127.317 151.926V160.326C127.318 160.976 127.19 161.621 126.942 162.222C126.693 162.823 126.329 163.37 125.869 163.83C125.409 164.29 124.863 164.655 124.262 164.904C123.661 165.154 123.017 165.282 122.366 165.282H106.462L99.1824 173.066L103.102 165.282H98.4096C97.0952 165.282 95.8346 164.76 94.9052 163.83C93.9758 162.901 93.4536 161.64 93.4536 160.326V151.926C93.4536 151.273 93.5825 150.627 93.833 150.024C94.0835 149.421 94.4505 148.874 94.9131 148.413C95.3757 147.953 95.9247 147.588 96.5286 147.341C97.1324 147.093 97.7793 146.967 98.432 146.97Z" fill="white"/>
<path d="M99.6026 155.661C99.5814 155.096 99.7296 154.537 100.028 154.056C100.327 153.576 100.762 153.195 101.278 152.964C101.794 152.732 102.368 152.661 102.926 152.757C103.483 152.854 103.999 153.115 104.407 153.507C104.815 153.899 105.096 154.404 105.215 154.957C105.334 155.51 105.286 156.086 105.075 156.611C104.865 157.136 104.502 157.587 104.034 157.904C103.566 158.222 103.013 158.392 102.447 158.394C102.078 158.412 101.71 158.355 101.364 158.226C101.018 158.096 100.702 157.897 100.435 157.641C100.169 157.385 99.9575 157.078 99.8143 156.737C99.6711 156.397 99.5991 156.03 99.6026 155.661ZM104.514 155.661C104.518 155.249 104.4 154.844 104.174 154.5C103.948 154.155 103.624 153.885 103.244 153.725C102.864 153.564 102.445 153.521 102.041 153.599C101.636 153.678 101.264 153.875 100.971 154.166C100.679 154.456 100.48 154.828 100.399 155.232C100.318 155.636 100.36 156.056 100.518 156.436C100.676 156.817 100.944 157.142 101.288 157.37C101.631 157.598 102.035 157.718 102.447 157.716C102.72 157.725 102.992 157.677 103.245 157.577C103.499 157.477 103.73 157.326 103.923 157.134C104.117 156.941 104.269 156.712 104.371 156.458C104.472 156.205 104.521 155.934 104.514 155.661Z" fill="#0A0A0A"/>
<path d="M105.963 156.311C105.952 155.892 106.066 155.48 106.29 155.127C106.514 154.774 106.838 154.495 107.221 154.327C107.604 154.159 108.028 154.108 108.44 154.182C108.852 154.256 109.232 154.451 109.533 154.742C109.833 155.033 110.04 155.407 110.127 155.816C110.215 156.225 110.178 156.651 110.022 157.039C109.866 157.427 109.598 157.76 109.252 157.996C108.906 158.231 108.498 158.358 108.08 158.36C107.804 158.374 107.528 158.331 107.269 158.234C107.011 158.137 106.775 157.987 106.576 157.795C106.378 157.603 106.221 157.372 106.116 157.117C106.01 156.861 105.958 156.587 105.963 156.311ZM109.43 156.311C109.442 156.124 109.415 155.937 109.352 155.761C109.289 155.586 109.19 155.425 109.063 155.288C108.935 155.152 108.78 155.044 108.609 154.969C108.438 154.895 108.253 154.857 108.066 154.857C107.879 154.857 107.694 154.895 107.523 154.969C107.351 155.044 107.197 155.152 107.069 155.288C106.942 155.425 106.843 155.586 106.78 155.761C106.717 155.937 106.69 156.124 106.702 156.311C106.69 156.497 106.717 156.684 106.78 156.86C106.843 157.036 106.942 157.197 107.069 157.333C107.197 157.469 107.351 157.578 107.523 157.652C107.694 157.726 107.879 157.764 108.066 157.764C108.253 157.764 108.438 157.726 108.609 157.652C108.78 157.578 108.935 157.469 109.063 157.333C109.19 157.197 109.289 157.036 109.352 156.86C109.415 156.684 109.442 156.497 109.43 156.311Z" fill="#0A0A0A"/>
<path d="M115.362 156.31C115.377 156.584 115.334 156.858 115.237 157.114C115.14 157.371 114.991 157.604 114.798 157.799C114.606 157.994 114.375 158.147 114.12 158.247C113.865 158.348 113.592 158.394 113.318 158.382C113.047 158.391 112.778 158.335 112.533 158.22C112.288 158.106 112.073 157.935 111.906 157.722V159.816H111.173V154.289H111.873V154.933C112.041 154.711 112.26 154.533 112.511 154.414C112.763 154.295 113.04 154.239 113.318 154.25C113.591 154.238 113.863 154.284 114.117 154.384C114.371 154.484 114.602 154.636 114.794 154.829C114.986 155.023 115.136 155.255 115.234 155.51C115.332 155.765 115.375 156.038 115.362 156.31ZM114.622 156.31C114.609 156.045 114.519 155.789 114.362 155.574C114.205 155.36 113.988 155.196 113.739 155.103C113.49 155.01 113.219 154.992 112.959 155.051C112.7 155.111 112.464 155.245 112.28 155.437C112.096 155.629 111.973 155.871 111.925 156.133C111.877 156.394 111.907 156.664 112.01 156.909C112.114 157.154 112.288 157.363 112.509 157.51C112.73 157.658 112.99 157.737 113.256 157.738C113.443 157.744 113.629 157.711 113.802 157.641C113.975 157.57 114.132 157.464 114.262 157.33C114.391 157.195 114.491 157.035 114.556 156.86C114.62 156.684 114.646 156.497 114.634 156.31H114.622Z" fill="#0A0A0A"/>
<path d="M115.875 157.906L116.178 157.346C116.603 157.617 117.096 157.761 117.6 157.761C118.278 157.761 118.558 157.559 118.558 157.201C118.558 156.294 116.004 157.083 116.004 155.47C116.004 154.748 116.654 154.255 117.684 154.255C118.199 154.247 118.707 154.375 119.157 154.625L118.843 155.185C118.495 154.967 118.09 154.856 117.679 154.866C117.035 154.866 116.721 155.101 116.721 155.426C116.721 156.378 119.286 155.599 119.286 157.173C119.286 157.901 118.614 158.371 117.539 158.371C116.95 158.389 116.37 158.227 115.875 157.906Z" fill="#0A0A0A"/>
<path d="M120.042 157.89C120.042 157.824 120.056 157.76 120.081 157.699C120.107 157.639 120.144 157.585 120.191 157.539C120.238 157.494 120.294 157.458 120.355 157.435C120.416 157.411 120.481 157.4 120.546 157.403C120.611 157.401 120.675 157.413 120.735 157.437C120.795 157.461 120.849 157.496 120.894 157.542C120.94 157.588 120.976 157.642 121 157.702C121.024 157.761 121.035 157.825 121.034 157.89C121.034 157.954 121.022 158.018 120.998 158.078C120.974 158.138 120.938 158.192 120.893 158.238C120.848 158.284 120.794 158.32 120.734 158.345C120.675 158.37 120.611 158.383 120.546 158.383C120.481 158.384 120.416 158.373 120.354 158.348C120.293 158.324 120.238 158.288 120.191 158.242C120.144 158.196 120.106 158.142 120.081 158.081C120.056 158.021 120.042 157.956 120.042 157.89ZM120.11 152.995H120.961L120.815 156.647H120.255L120.11 152.995Z" fill="#0A0A0A"/>
<path d="M238 59.6765C238 61.5021 228.015 63.0701 213.713 63.7589L212.565 63.8149L211.019 63.8765C208.874 63.9605 206.646 64.0221 204.35 64.0725H203.319H202.759C200.995 64.1005 199.192 64.1117 197.361 64.1117C194.046 64.1117 190.826 64.0669 187.74 63.9885L185.5 63.9157C179.872 63.7309 174.765 63.4117 170.464 62.9973C162.025 62.1797 156.699 60.9869 156.699 59.6373C156.699 57.6269 168.795 55.9357 185.433 55.3757L186.738 55.3309C187.899 55.2973 189.077 55.2693 190.271 55.2469C191.71 55.2189 193.178 55.2021 194.662 55.1909H197.366C201.555 55.1909 205.598 55.2581 209.401 55.3925L211.204 55.4541L213.55 55.5549L214.161 55.5885L215.723 55.6669C228.9 56.4397 238 57.9349 238 59.6765Z" fill="#263238"/>
<path opacity="0.4" d="M238 59.6766C238 61.5022 228.015 63.0702 213.713 63.759L212.565 63.815L211.019 63.8766C208.874 63.9606 206.646 64.0222 204.35 64.0726H203.319H202.759C200.995 64.1006 199.192 64.1118 197.361 64.1118C194.046 64.1118 190.826 64.067 187.74 63.9886L185.5 63.9158C179.872 63.731 174.765 63.4118 170.464 62.9974C162.025 62.1798 156.699 60.987 156.699 59.6374C156.699 59.0438 157.758 58.4726 159.678 57.9574C163.226 58.7886 166.832 59.3502 170.464 59.6374C174.765 60.0518 179.872 60.371 185.5 60.5558L187.74 60.6286C190.826 60.707 194.046 60.7518 197.361 60.7518C199.192 60.7518 200.995 60.7518 202.759 60.7126H203.319H204.35C206.646 60.6622 208.874 60.6006 211.019 60.5166L212.565 60.455L213.713 60.399C223.362 59.9342 231.039 59.0718 235.021 57.9966C236.914 58.5174 238 59.0774 238 59.6766Z" fill="white"/>
<path d="M194.6 55.2301C194.559 55.8973 194.308 56.5344 193.883 57.0501C193.418 57.6101 193.021 58.0357 192.567 58.5005C192.298 58.7749 192.007 59.0605 191.755 59.3069C191.576 59.4917 191.391 59.6653 191.195 59.8333C190.247 60.7093 189.244 61.5247 188.193 62.2749L188.009 62.4037L187.521 62.7285C186.85 63.1771 186.151 63.5812 185.427 63.9381C185.158 64.0725 184.867 64.2013 184.598 64.3245C183.928 64.6068 183.237 64.8389 182.532 65.0189C181.905 65.1869 181.305 65.3325 180.712 65.4557C179.877 65.6405 179.032 65.8085 178.231 65.9597C176.702 66.2565 175.179 66.5197 173.645 66.7437C172.34 66.9397 171.035 67.1245 169.725 67.3037C168.672 67.4325 167.619 67.5445 166.555 67.6341C166.438 67.6482 166.319 67.6482 166.202 67.6341C165.848 67.5857 165.52 67.4178 165.274 67.1582C165.027 66.8986 164.877 66.5628 164.847 66.2061C164.841 66.1353 164.841 66.0641 164.847 65.9933C164.861 65.6835 164.967 65.3849 165.152 65.1356C165.336 64.8862 165.591 64.6975 165.883 64.5933L166.017 64.5485C167.468 64.0277 168.924 63.5349 170.385 63.0589L172.597 62.3421C174.837 61.6141 177.077 60.9309 179.256 60.2085C179.816 60.0293 180.337 59.8445 180.835 59.6485C181.264 59.5063 181.677 59.3185 182.067 59.0885C182.319 58.9429 182.571 58.7805 182.829 58.6069C183.393 58.2274 183.937 57.8181 184.458 57.3805C185.197 56.7701 185.937 56.0981 186.659 55.3981C187.82 55.3645 188.998 55.3365 190.193 55.3141C191.649 55.2581 193.116 55.2413 194.6 55.2301Z" fill="#FFB573"/>
<path d="M194.667 57.4924C194.627 57.61 194.583 57.722 194.538 57.834C194.493 57.946 194.443 58.058 194.387 58.17C194.337 58.2799 194.281 58.3865 194.219 58.4892L194.034 58.8084V58.8364C193.907 59.0343 193.772 59.221 193.631 59.3964C193.479 59.5924 193.323 59.7828 193.155 59.9564L192.998 60.13C192.754 60.3906 192.496 60.6374 192.225 60.8692C192.135 60.9532 192.04 61.0316 191.945 61.1044C191.912 61.1375 191.877 61.1675 191.839 61.194C190.999 61.8639 190.099 62.4545 189.151 62.958L188.809 63.1316L188.473 63.2996L188.344 63.3556L187.935 62.9972L187.588 62.6836L186.804 61.9892L182.884 58.534L182.587 58.2708C182.587 58.2708 183.786 56.9324 185.387 55.37L186.692 55.3252C187.853 55.2916 189.031 55.2636 190.226 55.2412C191.665 55.2132 193.132 55.1964 194.616 55.1852H194.941C195.021 55.9651 194.928 56.7532 194.667 57.4924Z" fill="#0A0A0A"/>
<path opacity="0.7" d="M194.672 57.4924C194.633 57.6085 194.588 57.7225 194.538 57.834C194.493 57.946 194.443 58.058 194.387 58.17C194.337 58.2799 194.281 58.3865 194.219 58.4892L194.034 58.8084V58.8364C193.907 59.0343 193.772 59.221 193.631 59.3964C193.479 59.5924 193.323 59.7828 193.155 59.9564L192.998 60.13C192.754 60.3906 192.496 60.6374 192.225 60.8692C192.135 60.9532 192.04 61.0316 191.945 61.1044C191.912 61.1375 191.877 61.1675 191.839 61.194C190.999 61.8639 190.099 62.4545 189.151 62.958L188.809 63.1316L188.473 63.2996L188.344 63.3556L187.935 62.9972L187.588 62.6836L186.804 61.9892L182.884 58.534L182.587 58.2708C182.587 58.2708 183.786 56.9324 185.387 55.37L186.692 55.3252C187.853 55.2916 189.031 55.2636 190.226 55.2412C191.665 55.2132 193.132 55.1964 194.616 55.1852H194.947C195.027 55.9651 194.933 56.7532 194.672 57.4924Z" fill="white"/>
<path opacity="0.1" d="M191.8 61.2334C190.722 62.0952 189.543 62.8229 188.289 63.4006L186.749 62.0398C187.558 59.6373 189.015 57.5054 190.96 55.8798C191.66 57.179 191.884 59.895 191.8 61.2334Z" fill="black"/>
<path d="M166.477 64.5764L161.28 63.7812L161.319 68.3844C161.319 68.3844 164.881 69.454 166.768 67.0348L166.477 64.5764Z" fill="#EBB376"/>
<path d="M157.735 65.0244L158.592 68.446L161.313 68.3844L161.274 63.7812L157.735 65.0244Z" fill="#EBB376"/>
<path d="M213.488 55.5828C213.443 55.7004 213.393 55.818 213.348 55.9412C213.214 56.2828 213.085 56.63 212.962 56.9772C212.883 57.19 212.811 57.4028 212.738 57.6212C212.665 57.8396 212.587 58.058 212.519 58.2764C212.312 58.926 212.111 59.5812 211.915 60.2476C211.908 60.2837 211.899 60.3192 211.887 60.354C211.674 61.0932 211.483 61.8492 211.299 62.594V62.6836C211.203 63.0756 211.103 63.4676 211.013 63.8652C210.968 64.0444 210.929 64.218 210.89 64.3972C210.739 65.086 210.593 65.7804 210.459 66.4692C210.408 66.7268 210.358 66.9844 210.313 67.2364C210.268 67.4884 210.207 67.7964 210.162 68.0372C210.162 68.0932 210.162 68.1492 210.134 68.2052C210.106 68.3508 210.078 68.4964 210.055 68.642C209.983 69.0508 209.915 69.454 209.848 69.8516C209.848 69.9132 209.848 69.9692 209.82 70.0308L209.753 70.4508C209.619 71.2684 209.501 72.0692 209.395 72.8476C209.392 72.8923 209.392 72.9372 209.395 72.982C209.277 73.8388 209.176 74.662 209.087 75.4628C209.047 75.7932 209.008 76.118 208.975 76.4372C208.924 76.8852 208.879 77.3164 208.84 77.7364C208.807 78.0444 208.779 78.3468 208.751 78.638C208.723 78.9292 208.7 79.198 208.678 79.4388C208.655 79.6796 208.633 79.954 208.611 80.1948C208.555 80.878 208.51 81.494 208.471 82.026C208.471 82.2612 208.443 82.474 208.426 82.6756C208.381 83.4204 208.359 83.9412 208.347 84.1764C208.347 84.2716 208.347 84.322 208.347 84.322L198.419 83.4092H198.273L196.593 83.2524L194.067 83.0172L190.959 82.7596L190.226 82.6924L186.513 82.3508C186.513 81.998 186.479 81.6564 186.474 81.3092C186.474 81.214 186.474 81.1188 186.474 81.0236C186.367 77.966 186.423 75.1604 186.586 72.6236C186.675 71.2945 186.791 70.0308 186.933 68.8324C187.135 67.1076 187.387 65.5228 187.672 64.0612C187.734 63.7308 187.801 63.406 187.868 63.0924C187.913 62.874 187.958 62.6668 188.008 62.4596C188.384 60.7788 188.848 59.119 189.397 57.4868C189.666 56.7028 189.957 55.9916 190.198 55.3476C191.637 55.3196 193.104 55.3028 194.588 55.2916H197.293C201.482 55.2916 205.525 55.3588 209.327 55.4932L211.131 55.5548L213.488 55.5828Z" fill="#0A0A0A"/>
<path opacity="0.7" d="M213.488 55.5828C213.443 55.7004 213.393 55.818 213.348 55.9412C213.214 56.2828 213.085 56.63 212.962 56.9772C212.883 57.19 212.811 57.4028 212.738 57.6212C212.665 57.8396 212.587 58.058 212.519 58.2764V58.3156C212.312 58.954 212.122 59.5924 211.931 60.2476C211.925 60.2837 211.915 60.3192 211.903 60.354C211.635 61.306 211.383 62.2748 211.147 63.2492C211.097 63.4564 211.052 63.6692 211.007 63.8764C210.963 64.0836 210.923 64.2292 210.884 64.4084C210.733 65.0972 210.587 65.7916 210.453 66.4804C210.397 66.738 210.347 66.9956 210.302 67.2532C210.251 67.5164 210.201 67.7852 210.156 68.0484C210.156 68.1044 210.156 68.166 210.123 68.222C210.095 68.3676 210.067 68.5132 210.044 68.6588C209.971 69.0676 209.904 69.4708 209.837 69.8684C209.837 69.93 209.837 69.986 209.809 70.0476L209.742 70.4676C209.613 71.2852 209.49 72.086 209.383 72.8644C209.381 72.9091 209.381 72.954 209.383 72.9988C209.266 73.8556 209.165 74.6788 209.075 75.4796C209.036 75.81 208.997 76.1348 208.963 76.454C208.913 76.902 208.868 77.3332 208.829 77.7532C208.795 78.0612 208.767 78.3636 208.739 78.6548C208.711 78.946 208.689 79.2148 208.667 79.4556C208.644 79.6964 208.622 79.9708 208.599 80.2116C208.543 80.8948 208.499 81.5108 208.459 82.0428C208.459 82.278 208.431 82.4908 208.415 82.6924C208.37 83.4372 208.347 83.958 208.336 84.1932C208.336 84.2884 208.336 84.3388 208.336 84.3388L198.407 83.426H198.262L196.582 83.2692L194.056 83.034L190.959 82.7596L190.226 82.6924L186.513 82.3508C186.513 81.998 186.479 81.6564 186.474 81.3092C186.474 81.214 186.474 81.1188 186.474 81.0236C186.367 77.966 186.423 75.1604 186.586 72.6236C186.675 71.2945 186.791 70.0308 186.933 68.8324C187.135 67.1076 187.387 65.5228 187.672 64.0612C187.734 63.7308 187.801 63.406 187.868 63.0924C187.913 62.874 187.958 62.6668 188.008 62.4596C188.384 60.7788 188.848 59.119 189.397 57.4868C189.666 56.7028 189.957 55.9916 190.198 55.3476C191.637 55.3196 193.104 55.3028 194.588 55.2916H197.293C201.482 55.2916 205.525 55.3588 209.327 55.4932L211.131 55.5548L213.488 55.5828Z" fill="white"/>
<path d="M159.879 129.912C159.879 129.912 166.879 127 167.12 124.116C167.123 124.047 167.14 123.979 167.17 123.917C167.2 123.854 167.243 123.799 167.295 123.754C167.348 123.71 167.409 123.676 167.476 123.657C167.542 123.637 167.612 123.631 167.68 123.64L173.022 123.964C173.148 123.975 173.269 124.019 173.373 124.092C173.476 124.165 173.558 124.264 173.61 124.379L175.75 129.324L174.266 129.525L173.644 128.848L173.084 129.688C165.042 130.808 161.559 131.172 159.902 130.892C159.599 130.214 159.879 129.912 159.879 129.912Z" fill="black"/>
<path d="M192.69 100.831C192.382 100.764 192.214 100.713 192.214 100.713L167.014 97.5661L174.506 124.25L166.879 124.978C166.879 124.978 149.474 91.4061 156.586 86.5621C163.698 81.7181 185.751 87.0661 185.751 87.0661L186.619 80.4189L208.543 82.0541C212.066 103.967 195.714 101.464 192.69 100.831Z" fill="#263238"/>
<path d="M185.427 177.921C185.427 177.921 192.975 177.198 194.045 174.488C194.067 174.424 194.102 174.366 194.148 174.317C194.193 174.267 194.248 174.227 194.309 174.2C194.37 174.172 194.437 174.157 194.504 174.155C194.571 174.154 194.638 174.166 194.7 174.191L199.74 176.061C199.857 176.107 199.959 176.184 200.037 176.282C200.114 176.38 200.165 176.497 200.183 176.621L200.787 181.975L199.309 181.734L198.906 180.905L198.144 181.549C190.136 180.256 186.687 179.612 185.186 178.856C185.046 178.117 185.427 177.921 185.427 177.921Z" fill="black"/>
<path d="M208.763 89.995C208.729 90.1294 207.816 94.3294 206.624 100.349C206.556 100.691 206.489 101.049 206.416 101.402C205.856 104.264 205.24 107.484 204.636 110.838C203.896 114.921 203.163 119.238 202.547 123.309C201.712 128.409 201.168 133.553 200.917 138.715C200.626 151.69 200.083 177.293 200.083 177.293L193.1 176.173C193.1 176.173 189.241 148.868 189.286 135.646C189.32 127.246 191.403 109.937 192.825 99.1734C193.542 93.6518 194.091 89.8438 194.091 89.8438L202.004 89.9166L208.763 89.995Z" fill="#263238"/>
<path d="M208.214 84.1877L208.679 84.2269L208.656 82.7093L208.247 82.6813L208.214 84.1877Z" fill="#263238"/>
<path d="M190.977 82.8492L200.329 83.5772L200.374 82.0708L191.055 81.354L190.977 82.8492Z" fill="#263238"/>
<path d="M190.332 81.2981L186.379 80.9901L186.239 82.4797L190.243 82.7933L190.332 81.2981Z" fill="#263238"/>
<path d="M207.525 82.625L201.09 82.1266L201.062 83.633L207.474 84.1314L207.525 82.625Z" fill="#263238"/>
<g opacity="0.2">
<path d="M208.213 84.1877L208.678 84.2269L208.655 82.7093L208.246 82.6813L208.213 84.1877Z" fill="white"/>
<path d="M190.977 82.8492L200.329 83.5772L200.374 82.0708L191.055 81.354L190.977 82.8492Z" fill="white"/>
<path d="M190.333 81.2983L186.379 80.9903L186.239 82.4799L190.243 82.7935L190.333 81.2983Z" fill="white"/>
<path d="M207.525 82.6254L201.09 82.127L201.062 83.6334L207.474 84.1318L207.525 82.6254Z" fill="white"/>
</g>
<path d="M196.469 83.4765H196.425L194.095 83.2581C193.973 83.2481 193.86 83.191 193.779 83.099C193.699 83.007 193.657 82.8873 193.664 82.7653L193.697 81.8525C193.699 81.7882 193.715 81.7251 193.743 81.6672C193.771 81.6094 193.811 81.558 193.86 81.5165C193.907 81.4728 193.962 81.4396 194.023 81.4193C194.084 81.3991 194.149 81.3921 194.213 81.3989L196.531 81.5781C196.653 81.5867 196.766 81.6424 196.848 81.7333C196.929 81.8242 196.972 81.9433 196.968 82.0653V83.0173C196.967 83.082 196.952 83.1458 196.925 83.2046C196.898 83.2635 196.859 83.316 196.811 83.3589C196.716 83.4404 196.594 83.4825 196.469 83.4765ZM194.173 81.7965C194.159 81.7914 194.143 81.7914 194.129 81.7965C194.125 81.8044 194.123 81.813 194.123 81.8217C194.123 81.8304 194.125 81.839 194.129 81.8469L194.089 82.7597C194.089 82.769 194.09 82.7783 194.093 82.7871C194.096 82.7959 194.101 82.804 194.107 82.8109C194.113 82.8177 194.121 82.8232 194.129 82.8269C194.138 82.8306 194.147 82.8325 194.157 82.8325L196.486 83.0509C196.495 83.0546 196.505 83.0565 196.514 83.0565C196.524 83.0565 196.533 83.0546 196.542 83.0509C196.549 83.0347 196.549 83.0166 196.542 83.0005V82.0485C196.542 82.0301 196.535 82.0124 196.523 81.9989C196.51 81.9854 196.493 81.9771 196.475 81.9757L194.157 81.7965H194.173Z" fill="white"/>
<path d="M196.437 82.7034L195.726 82.6362C195.672 82.6306 195.622 82.6039 195.587 82.562C195.553 82.5201 195.536 82.4664 195.541 82.4122C195.546 82.3597 195.573 82.3115 195.613 82.278C195.654 82.2445 195.707 82.2283 195.759 82.233L196.47 82.3002C196.524 82.3002 196.575 82.3215 196.613 82.3593C196.651 82.3971 196.672 82.4484 196.672 82.5018C196.672 82.5553 196.651 82.6066 196.613 82.6444C196.575 82.6822 196.524 82.7034 196.47 82.7034H196.437Z" fill="white"/>
<path opacity="0.1" d="M211.888 60.3596C211.619 61.3116 211.367 62.2804 211.132 63.2548C211.042 63.6412 210.952 64.0276 210.868 64.414C210.448 66.3124 210.09 68.2164 209.793 70.0532L209.726 70.4732C205.879 71.7108 201.886 70.8596 202.015 67.1524C202.2 62.1852 206.433 59.8724 206.433 59.8724C208.32 58.8364 210.297 59.2396 211.888 60.3596Z" fill="black"/>
<path d="M174.251 202.605H179.431L162.586 69.493H157.406L174.251 202.605Z" fill="#263238"/>
<path opacity="0.4" d="M174.251 202.605H179.431L162.586 69.493H157.406L174.251 202.605Z" fill="white"/>
<path d="M163.419 89.2221H179.889C180.094 89.2111 180.292 89.1421 180.459 89.0231C180.627 88.9042 180.757 88.7402 180.835 88.5501L181.883 86.3101H161.426L162.473 88.5501C162.551 88.7402 162.681 88.9042 162.849 89.0231C163.016 89.1421 163.214 89.2111 163.419 89.2221Z" fill="#263238"/>
<path opacity="0.4" d="M163.419 89.2221H179.889C180.094 89.2111 180.292 89.1421 180.459 89.0231C180.627 88.9042 180.757 88.7402 180.835 88.5501L181.883 86.3101H161.426L162.473 88.5501C162.551 88.7402 162.681 88.9042 162.849 89.0231C163.016 89.1421 163.214 89.2111 163.419 89.2221Z" fill="white"/>
<path d="M161.7 87.3851H181.602C182.193 87.3851 182.672 86.9063 182.672 86.3155V86.0747C182.672 85.484 182.193 85.0051 181.602 85.0051H161.7C161.109 85.0051 160.63 85.484 160.63 86.0747V86.3155C160.63 86.9063 161.109 87.3851 161.7 87.3851Z" fill="#263238"/>
<path opacity="0.1" d="M161.7 87.3851H181.602C182.193 87.3851 182.672 86.9063 182.672 86.3155V86.0747C182.672 85.484 182.193 85.0051 181.602 85.0051H161.7C161.109 85.0051 160.63 85.484 160.63 86.0747V86.3155C160.63 86.9063 161.109 87.3851 161.7 87.3851Z" fill="white"/>
<path d="M166.425 108.251H182.889C183.095 108.241 183.294 108.171 183.462 108.051C183.63 107.931 183.76 107.765 183.836 107.573L184.883 105.361H164.432L165.473 107.573C165.55 107.766 165.681 107.932 165.85 108.052C166.019 108.172 166.218 108.241 166.425 108.251Z" fill="#263238"/>
<path opacity="0.4" d="M166.425 108.251H182.889C183.095 108.241 183.294 108.171 183.462 108.051C183.63 107.931 183.76 107.765 183.836 107.573L184.883 105.361H164.432L165.473 107.573C165.55 107.766 165.681 107.932 165.85 108.052C166.019 108.172 166.218 108.241 166.425 108.251Z" fill="white"/>
<path d="M164.707 106.414H184.61C185.2 106.414 185.679 105.935 185.679 105.345V105.104C185.679 104.513 185.2 104.034 184.61 104.034H164.707C164.116 104.034 163.638 104.513 163.638 105.104V105.345C163.638 105.935 164.116 106.414 164.707 106.414Z" fill="#263238"/>
<path opacity="0.1" d="M164.707 106.414H184.61C185.2 106.414 185.679 105.935 185.679 105.345V105.104C185.679 104.513 185.2 104.034 184.61 104.034H164.707C164.116 104.034 163.638 104.513 163.638 105.104V105.345C163.638 105.935 164.116 106.414 164.707 106.414Z" fill="white"/>
<path d="M169.428 133.434H185.92C186.126 133.425 186.326 133.357 186.495 133.238C186.664 133.119 186.795 132.954 186.872 132.762L187.914 130.522H167.44L168.487 132.762C168.563 132.952 168.692 133.117 168.859 133.236C169.026 133.355 169.223 133.424 169.428 133.434Z" fill="#263238"/>
<path opacity="0.4" d="M169.428 133.434H185.92C186.126 133.425 186.326 133.357 186.495 133.238C186.664 133.119 186.795 132.954 186.872 132.762L187.914 130.522H167.44L168.487 132.762C168.563 132.952 168.692 133.117 168.859 133.236C169.026 133.355 169.223 133.424 169.428 133.434Z" fill="white"/>
<path d="M167.709 131.603H187.611C188.202 131.603 188.681 131.124 188.681 130.533V130.292C188.681 129.702 188.202 129.223 187.611 129.223H167.709C167.118 129.223 166.639 129.702 166.639 130.292V130.533C166.639 131.124 167.118 131.603 167.709 131.603Z" fill="#263238"/>
<path opacity="0.1" d="M167.709 131.603H187.611C188.202 131.603 188.681 131.124 188.681 130.533V130.292C188.681 129.702 188.202 129.223 187.611 129.223H167.709C167.118 129.223 166.639 129.702 166.639 130.292V130.533C166.639 131.124 167.118 131.603 167.709 131.603Z" fill="white"/>
<path d="M172.43 158.623H188.899C189.105 158.613 189.303 158.545 189.471 158.426C189.639 158.306 189.769 158.142 189.846 157.951L190.893 155.711H170.436L171.483 157.951C171.56 158.142 171.69 158.306 171.858 158.426C172.026 158.545 172.224 158.613 172.43 158.623Z" fill="#263238"/>
<path opacity="0.4" d="M172.43 158.623H188.899C189.105 158.613 189.303 158.545 189.471 158.426C189.639 158.306 189.769 158.142 189.846 157.951L190.893 155.711H170.436L171.483 157.951C171.56 158.142 171.69 158.306 171.858 158.426C172.026 158.545 172.224 158.613 172.43 158.623Z" fill="white"/>
<path d="M170.71 156.792H190.613C191.203 156.792 191.682 156.313 191.682 155.722V155.481C191.682 154.891 191.203 154.412 190.613 154.412H170.71C170.119 154.412 169.641 154.891 169.641 155.481V155.722C169.641 156.313 170.119 156.792 170.71 156.792Z" fill="#263238"/>
<path opacity="0.1" d="M170.71 156.792H190.613C191.203 156.792 191.682 156.313 191.682 155.722V155.481C191.682 154.891 191.203 154.412 190.613 154.412H170.71C170.119 154.412 169.641 154.891 169.641 155.481V155.722C169.641 156.313 170.119 156.792 170.71 156.792Z" fill="white"/>
<path d="M175.437 183.812H191.901C192.106 183.803 192.305 183.734 192.473 183.615C192.641 183.496 192.771 183.331 192.847 183.14L193.894 180.9H173.438L174.485 183.14C174.562 183.331 174.693 183.497 174.862 183.616C175.031 183.735 175.23 183.803 175.437 183.812Z" fill="#263238"/>
<path opacity="0.4" d="M175.437 183.812H191.901C192.106 183.803 192.305 183.734 192.473 183.615C192.641 183.496 192.771 183.331 192.847 183.14L193.894 180.9H173.438L174.485 183.14C174.562 183.331 174.693 183.497 174.862 183.616C175.031 183.735 175.23 183.803 175.437 183.812Z" fill="white"/>
<path d="M173.713 181.98H193.615C194.206 181.98 194.685 181.502 194.685 180.911V180.67C194.685 180.079 194.206 179.6 193.615 179.6H173.713C173.122 179.6 172.643 180.079 172.643 180.67V180.911C172.643 181.502 173.122 181.98 173.713 181.98Z" fill="#263238"/>
<path opacity="0.1" d="M173.713 181.98H193.615C194.206 181.98 194.685 181.502 194.685 180.911V180.67C194.685 180.079 194.206 179.6 193.615 179.6H173.713C173.122 179.6 172.643 180.079 172.643 180.67V180.911C172.643 181.502 173.122 181.98 173.713 181.98Z" fill="white"/>
<path d="M194.247 202.605H199.427L182.582 69.493H177.402L194.247 202.605Z" fill="#263238"/>
<path opacity="0.7" d="M194.247 202.605H199.427L182.582 69.493H177.402L194.247 202.605Z" fill="white"/>
<path d="M139.866 202.605H134.686L151.525 69.4932H156.705L139.866 202.605Z" fill="#263238"/>
<path opacity="0.4" d="M139.866 202.605H134.686L151.525 69.4932H156.705L139.866 202.605Z" fill="white"/>
<path d="M170.689 89.2221H154.225C154.018 89.2121 153.819 89.1436 153.651 89.0246C153.482 88.9056 153.351 88.741 153.273 88.5501L152.231 86.3101H172.682L171.635 88.5501C171.558 88.7409 171.428 88.9057 171.26 89.0248C171.092 89.1439 170.894 89.2124 170.689 89.2221Z" fill="#263238"/>
<path opacity="0.5" d="M170.689 89.2221H154.225C154.018 89.2121 153.819 89.1436 153.651 89.0246C153.482 88.9056 153.351 88.741 153.273 88.5501L152.231 86.3101H172.682L171.635 88.5501C171.558 88.7409 171.428 88.9057 171.26 89.0248C171.092 89.1439 170.894 89.2124 170.689 89.2221Z" fill="white"/>
<path d="M172.407 85.011H152.505C151.914 85.011 151.435 85.4899 151.435 86.0806V86.3214C151.435 86.9121 151.914 87.391 152.505 87.391H172.407C172.998 87.391 173.477 86.9121 173.477 86.3214V86.0806C173.477 85.4899 172.998 85.011 172.407 85.011Z" fill="#263238"/>
<path opacity="0.2" d="M172.407 85.011H152.505C151.914 85.011 151.435 85.4899 151.435 86.0806V86.3214C151.435 86.9121 151.914 87.391 152.505 87.391H172.407C172.998 87.391 173.477 86.9121 173.477 86.3214V86.0806C173.477 85.4899 172.998 85.011 172.407 85.011Z" fill="white"/>
<path d="M167.687 108.251H151.2C150.994 108.24 150.796 108.171 150.628 108.05C150.46 107.93 150.33 107.765 150.254 107.573L149.207 105.361H169.68L168.633 107.573C168.556 107.765 168.426 107.93 168.259 108.05C168.091 108.171 167.893 108.24 167.687 108.251Z" fill="#263238"/>
<path opacity="0.5" d="M167.687 108.251H151.2C150.994 108.24 150.796 108.171 150.628 108.05C150.46 107.93 150.33 107.765 150.254 107.573L149.207 105.361H169.68L168.633 107.573C168.556 107.765 168.426 107.93 168.259 108.05C168.091 108.171 167.893 108.24 167.687 108.251Z" fill="white"/>
<path d="M169.406 104.034H149.503C148.912 104.034 148.434 104.513 148.434 105.104V105.345C148.434 105.935 148.912 106.414 149.503 106.414H169.406C169.996 106.414 170.475 105.935 170.475 105.345V105.104C170.475 104.513 169.996 104.034 169.406 104.034Z" fill="#263238"/>
<path opacity="0.2" d="M169.406 104.034H149.503C148.912 104.034 148.434 104.513 148.434 105.104V105.345C148.434 105.935 148.912 106.414 149.503 106.414H169.406C169.996 106.414 170.475 105.935 170.475 105.345V105.104C170.475 104.513 169.996 104.034 169.406 104.034Z" fill="white"/>
<path d="M164.678 133.434H148.214C148.009 133.425 147.81 133.357 147.642 133.237C147.474 133.118 147.344 132.953 147.268 132.762L146.221 130.522H166.672L165.63 132.762C165.553 132.954 165.422 133.119 165.253 133.238C165.084 133.357 164.885 133.425 164.678 133.434Z" fill="#263238"/>
<path opacity="0.5" d="M164.678 133.434H148.214C148.009 133.425 147.81 133.357 147.642 133.237C147.474 133.118 147.344 132.953 147.268 132.762L146.221 130.522H166.672L165.63 132.762C165.553 132.954 165.422 133.119 165.253 133.238C165.084 133.357 164.885 133.425 164.678 133.434Z" fill="white"/>
<path d="M166.399 129.223H146.496C145.906 129.223 145.427 129.702 145.427 130.292V130.533C145.427 131.124 145.906 131.603 146.496 131.603H166.399C166.989 131.603 167.468 131.124 167.468 130.533V130.292C167.468 129.702 166.989 129.223 166.399 129.223Z" fill="#263238"/>
<path opacity="0.2" d="M166.399 129.223H146.496C145.906 129.223 145.427 129.702 145.427 130.292V130.533C145.427 131.124 145.906 131.603 146.496 131.603H166.399C166.989 131.603 167.468 131.124 167.468 130.533V130.292C167.468 129.702 166.989 129.223 166.399 129.223Z" fill="white"/>
<path d="M161.678 158.623H145.214C145.008 158.613 144.809 158.545 144.64 158.426C144.471 158.307 144.34 158.142 144.262 157.951L143.221 155.711H163.672L162.625 157.951C162.548 158.142 162.418 158.307 162.251 158.426C162.083 158.545 161.884 158.614 161.678 158.623Z" fill="#263238"/>
<path opacity="0.5" d="M161.678 158.623H145.214C145.008 158.613 144.809 158.545 144.64 158.426C144.471 158.307 144.34 158.142 144.262 157.951L143.221 155.711H163.672L162.625 157.951C162.548 158.142 162.418 158.307 162.251 158.426C162.083 158.545 161.884 158.614 161.678 158.623Z" fill="white"/>
<path d="M163.397 154.412H143.495C142.904 154.412 142.425 154.89 142.425 155.481V155.722C142.425 156.313 142.904 156.792 143.495 156.792H163.397C163.988 156.792 164.467 156.313 164.467 155.722V155.481C164.467 154.89 163.988 154.412 163.397 154.412Z" fill="#263238"/>
<path opacity="0.2" d="M163.397 154.412H143.495C142.904 154.412 142.425 154.89 142.425 155.481V155.722C142.425 156.313 142.904 156.792 143.495 156.792H163.397C163.988 156.792 164.467 156.313 164.467 155.722V155.481C164.467 154.89 163.988 154.412 163.397 154.412Z" fill="white"/>
<path d="M158.676 183.812H142.206C142 183.802 141.802 183.734 141.634 183.614C141.467 183.495 141.337 183.331 141.26 183.14L140.212 180.9H160.669L159.622 183.14C159.546 183.331 159.416 183.496 159.248 183.615C159.08 183.735 158.881 183.803 158.676 183.812Z" fill="#263238"/>
<path opacity="0.5" d="M158.676 183.812H142.206C142 183.802 141.802 183.734 141.634 183.614C141.467 183.495 141.337 183.331 141.26 183.14L140.212 180.9H160.669L159.622 183.14C159.546 183.331 159.416 183.496 159.248 183.615C159.08 183.735 158.881 183.803 158.676 183.812Z" fill="white"/>
<path d="M160.396 179.6H140.493C139.903 179.6 139.424 180.079 139.424 180.67V180.911C139.424 181.502 139.903 181.98 140.493 181.98H160.396C160.987 181.98 161.465 181.502 161.465 180.911V180.67C161.465 180.079 160.987 179.6 160.396 179.6Z" fill="#263238"/>
<path opacity="0.2" d="M160.396 179.6H140.493C139.903 179.6 139.424 180.079 139.424 180.67V180.911C139.424 181.502 139.903 181.98 140.493 181.98H160.396C160.987 181.98 161.465 181.502 161.465 180.911V180.67C161.465 180.079 160.987 179.6 160.396 179.6Z" fill="white"/>
<path d="M159.857 202.605H154.677L171.522 69.493H176.702L159.857 202.605Z" fill="#263238"/>
<path opacity="0.7" d="M159.857 202.605H154.677L171.522 69.493H176.702L159.857 202.605Z" fill="white"/>
<path d="M183.412 70.1709H150.584C150.379 70.1598 150.181 70.0908 150.014 69.9719C149.846 69.8529 149.716 69.6889 149.638 69.4989L148.591 67.2589H185.405L184.364 69.4989C184.282 69.6875 184.15 69.8499 183.982 69.9685C183.814 70.087 183.617 70.157 183.412 70.1709Z" fill="#263238"/>
<path opacity="0.5" d="M183.412 70.1709H150.584C150.379 70.1598 150.181 70.0908 150.014 69.9719C149.846 69.8529 149.716 69.6889 149.638 69.4989L148.591 67.2589H185.405L184.364 69.4989C184.282 69.6875 184.15 69.8499 183.982 69.9685C183.814 70.087 183.617 70.157 183.412 70.1709Z" fill="white"/>
<path d="M185.13 65.9597H148.87C148.28 65.9597 147.801 66.4385 147.801 67.0293V67.2701C147.801 67.8608 148.28 68.3397 148.87 68.3397H185.13C185.721 68.3397 186.2 67.8608 186.2 67.2701V67.0293C186.2 66.4385 185.721 65.9597 185.13 65.9597Z" fill="#263238"/>
<path opacity="0.2" d="M185.13 65.9597H148.87C148.28 65.9597 147.801 66.4385 147.801 67.0293V67.2701C147.801 67.8608 148.28 68.3397 148.87 68.3397H185.13C185.721 68.3397 186.2 67.8608 186.2 67.2701V67.0293C186.2 66.4385 185.721 65.9597 185.13 65.9597Z" fill="white"/>
<path d="M185.708 69.6165L181.401 66.5813L179.385 70.7197C179.385 70.7197 182.096 73.2621 184.862 71.9405L185.708 69.6165Z" fill="#EBB376"/>
<path d="M177.683 66.1165L176.921 69.5605L179.385 70.7197L181.401 66.5813L177.683 66.1165Z" fill="#EBB376"/>
<path d="M215.146 60.0406C214.3 61.3454 213.438 62.5942 212.536 63.815C211.859 64.7166 211.164 65.607 210.436 66.4806C210.218 66.7494 209.994 67.0126 209.77 67.2758C209.328 67.7854 208.88 68.295 208.409 68.799C207.849 69.4262 207.216 70.0422 206.561 70.647L206.186 70.983C205.697 71.4354 205.183 71.8598 204.646 72.2542C203.847 72.8527 202.971 73.3406 202.042 73.7046C201.767 73.8116 201.484 73.8977 201.196 73.9622C200.922 74.0294 200.687 74.063 200.435 74.1078C199.991 74.1683 199.544 74.2057 199.096 74.2198C198.251 74.2478 197.461 74.2198 196.683 74.1806C195.137 74.0966 193.648 73.8894 192.175 73.671C190.293 73.3742 188.445 73.0046 186.614 72.551C185.936 72.3942 185.264 72.2206 184.592 72.0414L183.523 71.7446C183.182 71.6448 182.885 71.4317 182.681 71.1405C182.478 70.8494 182.38 70.4975 182.403 70.143C182.41 70.0295 182.429 69.9169 182.459 69.807C182.539 69.516 182.703 69.2549 182.93 69.0559C183.156 68.8569 183.437 68.7286 183.736 68.687C183.83 68.6759 183.926 68.6759 184.021 68.687H184.049H184.441C185.287 68.715 186.121 68.7486 186.978 68.771C188.865 68.8382 190.747 68.8886 192.578 68.9166C193.984 68.9166 195.378 68.9166 196.728 68.8718C197.4 68.8438 198.055 68.7878 198.648 68.7038C199.093 68.6725 199.529 68.5645 199.936 68.3846C200.326 68.161 200.69 67.8963 201.023 67.595C201.359 67.3038 201.712 66.979 202.059 66.6262C202.16 66.531 202.255 66.4302 202.35 66.3294C202.546 66.1278 202.736 65.915 202.91 65.7022C203.392 65.1758 203.856 64.627 204.321 64.0614C204.528 63.8038 204.741 63.5462 204.948 63.283C205.956 62.0118 206.959 60.6734 207.928 59.3238C208.588 58.411 209.238 57.487 209.865 56.5798L209.899 56.5238C210.211 56.0675 210.64 55.7038 211.142 55.471L213.488 55.5718L214.099 55.6054C214.163 55.6405 214.225 55.6798 214.284 55.723C214.961 56.1889 215.43 56.9005 215.591 57.7068C215.752 58.513 215.592 59.3502 215.146 60.0406Z" fill="#FFB573"/>
<path d="M213.684 63.759C212.626 65.2866 211.44 66.7216 210.14 68.0485C209.792 68.4069 209.423 68.7765 209.02 69.1685L208.392 68.8157L202.899 65.7245L202.389 65.439C202.389 65.439 202.748 64.8789 203.28 64.1005C203.946 63.0925 204.892 61.6533 205.772 60.2981C206.455 59.2341 207.093 58.2205 207.513 57.4981C207.98 56.6978 208.596 55.9945 209.328 55.4261L211.131 55.4877L213.477 55.5885L214.088 55.6221L215.65 55.7005C216.372 57.3693 216.216 60.0182 213.684 63.759Z" fill="#0A0A0A"/>
<path opacity="0.7" d="M213.684 63.759C212.626 65.2866 211.44 66.7216 210.14 68.0485C209.792 68.4069 209.423 68.7765 209.02 69.1685L208.392 68.8157L202.899 65.7245L202.389 65.439C202.389 65.439 202.748 64.8789 203.28 64.1005C203.946 63.0925 204.892 61.6533 205.772 60.2981C206.455 59.2341 207.093 58.2205 207.513 57.4981C207.98 56.6978 208.596 55.9945 209.328 55.4261L211.131 55.4877L213.477 55.5885L214.088 55.6221L215.65 55.7005C216.372 57.3693 216.216 60.0182 213.684 63.759Z" fill="white"/>
<path d="M131.79 202.51C131.792 202.542 131.792 202.574 131.79 202.606C131.792 202.62 131.792 202.636 131.79 202.65C131.783 202.679 131.773 202.707 131.762 202.734C131.745 202.772 131.725 202.808 131.7 202.841C131.676 202.881 131.648 202.918 131.616 202.953C131.352 203.21 131.04 203.414 130.698 203.552L130.423 203.67C130.154 203.782 129.863 203.888 129.51 203.994C129.298 204.062 129.074 204.123 128.833 204.19C124.913 205.249 117.381 206.1 107.911 206.57L106.791 206.626L104.954 206.705L103.067 206.772L101.762 206.817C100.726 206.845 99.6792 206.873 98.6152 206.89H98.2288H97.5064H96.8064C95.8264 206.89 94.8352 206.89 93.8384 206.923H91.1336C87.8632 206.923 84.6768 206.884 81.6136 206.8L80.2584 206.755C79.8664 206.755 79.4744 206.755 79.088 206.722L77.2848 206.66L74.9384 206.559L74.328 206.526L72.7656 206.447C70.1952 206.302 67.7816 206.134 65.564 205.932C60.2552 205.462 56.044 204.851 53.44 204.146L53.216 204.084L52.9696 204.011C52.5496 203.888 52.1856 203.759 51.8496 203.636C51.732 203.586 51.62 203.541 51.5192 203.49C51.3519 203.412 51.1892 203.324 51.032 203.227C50.9786 203.196 50.928 203.161 50.8808 203.121L50.7576 203.026L50.64 202.908C50.6087 202.875 50.5805 202.84 50.556 202.802C50.5148 202.742 50.4844 202.676 50.4664 202.606V202.544C50.4637 202.518 50.4637 202.492 50.4664 202.466C50.4664 200.64 60.4512 199.072 74.7536 198.383L75.9016 198.327L77.4472 198.266L79.8216 198.182L81.104 198.142L84.1168 198.07H84.2792H85.1472H85.7352C86.62 198.07 87.5104 198.07 88.412 198.042H88.6808C89.4928 198.042 90.3104 198.042 91.1336 198.042C94.4488 198.042 97.6688 198.086 100.754 198.165L102.994 198.238L103.946 198.271H104.042L105.083 198.31L105.766 198.338L107.536 198.417L109.216 198.501C112.419 198.674 115.376 198.893 118.042 199.15C126.464 199.985 131.79 201.178 131.79 202.51Z" fill="#263238"/>
<path opacity="0.4" d="M50.4561 202.51C50.4561 200.685 60.4409 199.117 74.7433 198.428L75.8913 198.372L77.4369 198.31C79.5817 198.226 81.8105 198.165 84.1065 198.114H85.1369H85.7249C87.4889 198.086 89.2921 198.075 91.1233 198.075C94.4385 198.075 97.6585 198.12 100.744 198.198L102.984 198.271C108.612 198.456 113.719 198.775 118.02 199.189C126.459 200.007 131.785 201.2 131.785 202.549C131.785 203.143 130.726 203.714 128.806 204.229C125.258 203.398 121.652 202.837 118.02 202.549C113.719 202.135 108.612 201.816 102.984 201.631L100.744 201.558C97.6585 201.48 94.4385 201.435 91.1233 201.435C89.2921 201.435 87.4889 201.435 85.7249 201.474H85.1201H84.0897C81.7937 201.525 79.5649 201.586 77.4201 201.67L75.8745 201.732L74.7265 201.788C65.0777 202.253 57.4001 203.115 53.4465 204.19C51.5201 203.669 50.4561 203.109 50.4561 202.51Z" fill="white"/>
<path d="M87.7016 200.444C87.3936 200.813 87.108 201.133 86.8224 201.441C86.6768 201.592 86.5368 201.743 86.3856 201.894C86.1168 202.169 85.8537 202.454 85.5793 202.701C85.4001 202.88 85.2153 203.053 85.0193 203.227C84.0704 204.105 83.0659 204.92 82.012 205.669L81.8328 205.792C81.6761 205.904 81.5136 206.01 81.3456 206.122C80.9928 206.357 80.6288 206.587 80.2256 206.8C79.8336 206.8 79.4416 206.8 79.0552 206.766L77.252 206.705L74.9056 206.604L74.2952 206.57L72.7329 206.492C70.1625 206.346 67.7489 206.178 65.5312 205.977L66.4048 205.697C68.6448 204.969 70.8848 204.285 73.0688 203.569C73.6288 203.384 74.1496 203.205 74.648 203.009C75.0775 202.866 75.4905 202.679 75.88 202.449C76.1264 202.303 76.384 202.141 76.6416 201.967C76.776 201.877 76.9161 201.782 77.0561 201.676C77.4593 201.39 77.8624 201.071 78.26 200.741C79.0664 200.08 79.856 199.352 80.64 198.596L81.06 198.181C81.312 197.941 81.5585 197.7 81.7993 197.448L82.9193 196.328L82.9864 196.255C83.3242 195.904 83.7384 195.635 84.1968 195.47C84.6552 195.305 85.1455 195.248 85.6297 195.303C86.3359 195.384 86.9937 195.702 87.4953 196.206C87.9969 196.709 88.3125 197.369 88.3904 198.075C88.4398 198.496 88.4043 198.922 88.286 199.329C88.1677 199.736 87.969 200.115 87.7016 200.444Z" fill="#FFB573"/>
<path d="M86.4472 194.015C83.3224 193.942 76.3672 201.709 76.3672 201.709L82.1072 206.794C82.1072 206.794 87.2312 204.554 88.4856 200.886C89.74 197.218 86.4472 194.015 86.4472 194.015Z" fill="#0A0A0A"/>
<path opacity="0.7" d="M88.4795 200.886C87.884 202.374 86.89 203.668 85.6067 204.627C84.5283 205.489 83.3493 206.217 82.0955 206.794L80.5555 205.428L76.3555 201.709C76.3555 201.709 83.3051 193.942 86.4355 194.015C86.4467 194.015 89.7507 197.196 88.4795 200.886Z" fill="white"/>
<path opacity="0.1" d="M85.6235 204.627C84.5451 205.489 83.366 206.217 82.1123 206.794L80.5723 205.428C81.3902 203.034 82.8533 200.912 84.8003 199.296C85.4835 200.573 85.7075 203.289 85.6235 204.627Z" fill="black"/>
<path d="M108.03 197.291C107.996 197.364 107.962 197.431 107.934 197.504C107.845 197.7 107.761 197.896 107.677 198.097C107.626 198.201 107.581 198.308 107.542 198.417C107.531 198.438 107.521 198.46 107.514 198.484C107.473 198.567 107.438 198.653 107.408 198.741C107.313 198.965 107.223 199.195 107.134 199.43C107.044 199.665 106.915 200.018 106.809 200.315C106.809 200.315 106.809 200.343 106.809 200.354C106.73 200.567 106.658 200.78 106.585 200.998C106.512 201.217 106.434 201.435 106.366 201.653C106.364 201.676 106.364 201.698 106.366 201.721C106.299 201.922 106.232 202.124 106.17 202.325C106.042 202.751 105.913 203.177 105.79 203.613L105.756 203.731C105.487 204.683 105.235 205.652 105 206.626C104.997 206.647 104.997 206.667 105 206.688L103.113 206.755L101.808 206.8C100.772 206.828 99.7248 206.856 98.6608 206.873H98.2744H97.552H96.852C95.872 206.873 94.8808 206.873 93.884 206.906H91.1792C87.9088 206.906 84.7224 206.867 81.6592 206.783L81.7432 206.369C81.7432 206.279 81.7824 206.195 81.8048 206.111C81.8272 206.027 81.8384 205.943 81.8608 205.859C81.8722 205.818 81.8815 205.777 81.8888 205.736C82.1389 204.616 82.4002 203.595 82.6728 202.673C82.7736 202.348 82.8632 202.04 82.9584 201.732C82.992 201.637 83.02 201.541 83.0536 201.446C83.1264 201.217 83.1992 200.998 83.272 200.785L83.3896 200.444C83.4512 200.27 83.5128 200.097 83.5744 199.934C83.636 199.772 83.7144 199.548 83.7816 199.374L83.9664 198.904L84.3024 198.092C84.56 197.476 84.812 196.938 85.0472 196.462C85.092 196.384 85.1312 196.3 85.1704 196.221L85.4056 195.768L85.68 195.269C85.697 195.245 85.712 195.218 85.7248 195.191C85.82 195.017 85.9152 194.861 85.9992 194.726L86.2176 194.379L86.4808 193.998C88.1427 193.839 89.8129 193.785 91.4816 193.836C91.8344 193.836 92.1928 193.864 92.5568 193.886C92.9208 193.909 93.2512 193.942 93.632 193.987C94.4328 194.077 95.312 194.2 96.2472 194.351L98.0056 194.653C98.5936 194.76 99.176 194.866 99.736 194.978L100.033 195.04C100.475 195.124 100.906 195.213 101.304 195.297C101.578 195.353 101.864 195.415 102.122 195.482C102.262 195.516 102.396 195.544 102.53 195.583L102.939 195.684C103.449 195.813 103.953 195.953 104.429 196.087L104.894 196.227L105.762 196.496L106.523 196.742C107.391 197.028 107.968 197.241 108.052 197.269L108.03 197.291Z" fill="#0A0A0A"/>
<path opacity="0.7" d="M108.035 197.291C108.002 197.364 107.968 197.431 107.94 197.504C107.85 197.7 107.761 197.896 107.682 198.098C107.63 198.202 107.585 198.308 107.548 198.417C107.546 198.439 107.546 198.462 107.548 198.484C107.507 198.567 107.471 198.653 107.442 198.742C107.346 198.966 107.257 199.195 107.167 199.43C107.078 199.666 106.943 200.018 106.842 200.315C106.842 200.315 106.842 200.343 106.842 200.354C106.764 200.567 106.691 200.78 106.618 200.998C106.546 201.217 106.467 201.435 106.4 201.654V201.693C106.333 201.894 106.266 202.096 106.204 202.298C106.075 202.723 105.946 203.149 105.823 203.586L105.79 203.703C105.521 204.655 105.269 205.624 105.034 206.598C105.031 206.619 105.031 206.64 105.034 206.66L103.146 206.727L101.842 206.772C100.806 206.8 99.7585 206.828 98.6945 206.845H98.3081H97.5857H96.8857C95.9057 206.845 94.9145 206.845 93.9177 206.878H91.2129C87.9425 206.878 84.7561 206.839 81.6929 206.755L81.7769 206.346C81.8161 206.167 81.8497 205.999 81.8889 205.831C81.9003 205.791 81.9096 205.749 81.9169 205.708C82.167 204.588 82.4283 203.567 82.7009 202.645C82.8017 202.32 82.8913 202.012 82.9865 201.704C83.0201 201.609 83.0481 201.514 83.0817 201.418C83.1545 201.189 83.2273 200.97 83.3001 200.758L83.4177 200.416C83.4793 200.242 83.5409 200.069 83.6025 199.906C83.6641 199.744 83.7425 199.52 83.8097 199.346L83.9945 198.876L84.3305 198.064C84.5881 197.448 84.8401 196.91 85.0697 196.434C85.1145 196.356 85.1537 196.272 85.1929 196.194L85.4281 195.74L85.7025 195.242C85.7195 195.217 85.7345 195.19 85.7473 195.163L86.0217 194.698L86.2401 194.351L86.5033 193.97C88.1652 193.811 89.8354 193.757 91.5041 193.808C91.8569 193.808 92.2153 193.836 92.5793 193.858C92.9433 193.881 93.2737 193.914 93.6545 193.959C94.4553 194.049 95.3345 194.172 96.2697 194.323L98.0281 194.626C98.6161 194.732 99.1985 194.838 99.7585 194.95L100.055 195.012C100.498 195.096 100.929 195.186 101.326 195.27C101.601 195.326 101.886 195.387 102.144 195.454C102.284 195.488 102.418 195.516 102.553 195.555L102.962 195.65C103.471 195.779 103.975 195.919 104.451 196.059L104.916 196.199L105.784 196.468L106.546 196.714C107.414 197 107.99 197.213 108.074 197.241L108.035 197.291Z" fill="white"/>
<path d="M97.9041 187.172C97.9041 187.172 98.0777 193.13 98.6433 194.015C99.2089 194.9 101.253 195.309 101.253 195.309C101.253 195.309 96.3417 197.75 94.0457 197.291C91.7497 196.832 90.6465 193.836 90.6465 193.836C90.6465 193.836 92.2481 193.898 92.6401 193.679C93.0321 193.461 92.3321 189.513 92.3321 189.513L97.9041 187.172Z" fill="#EBB376"/>
<path opacity="0.2" d="M92.8024 190.997L92.6008 191.282C92.4776 190.358 92.332 189.513 92.332 189.513L97.8984 187.172C97.8984 187.172 98.044 191.971 98.4584 193.595C96.2072 193.83 93.5752 192.162 92.8024 190.997Z" fill="black"/>
<path d="M96.0009 177.165C97.5241 177.96 99.7025 180.525 97.3169 181.381C94.9313 182.238 93.3857 175.804 96.0009 177.165Z" fill="#263238"/>
<path d="M89.2316 187.077C90.4003 188.503 91.6731 189.842 93.0396 191.081C94.0219 191.913 95.2276 192.437 96.506 192.587C100.986 193.147 103.887 188.376 102.078 184.439C101.869 183.988 101.635 183.549 101.378 183.123C99.4124 179.886 95.6324 176.487 91.8916 177.596C90.9488 177.876 90.0923 178.39 89.4021 179.09C88.7119 179.791 88.2105 180.655 87.9448 181.602C87.6792 182.549 87.6578 183.548 87.8829 184.505C88.1079 185.462 88.5719 186.347 89.2316 187.077Z" fill="#EBB376"/>
<path d="M91.0718 186.808L91.279 187.48C91.6725 188.773 92.274 189.993 93.0598 191.092C94.042 191.924 95.2477 192.448 96.5262 192.598C101.006 193.158 103.907 188.387 102.098 184.45C101.889 183.999 101.655 183.56 101.398 183.134C101.398 183.134 101.734 184.714 101.443 185.447C101.443 185.447 99.763 185.016 98.9342 185.705C98.9342 185.705 97.1534 185.218 95.6414 187.105C94.9502 187.557 94.1311 187.772 93.3071 187.719C92.483 187.665 91.6986 187.345 91.0718 186.808Z" fill="#263238"/>
<path opacity="0.5" d="M91.0718 186.808L91.279 187.48C91.6725 188.773 92.274 189.993 93.0598 191.092C94.042 191.924 95.2477 192.448 96.5262 192.598C101.006 193.158 103.907 188.387 102.098 184.45C101.889 183.999 101.655 183.56 101.398 183.134C101.398 183.134 101.734 184.714 101.443 185.447C101.443 185.447 99.763 185.016 98.9342 185.705C98.9342 185.705 97.1534 185.218 95.6414 187.105C94.9502 187.557 94.1311 187.772 93.3071 187.719C92.483 187.665 91.6986 187.345 91.0718 186.808Z" fill="white"/>
<path d="M84.5602 184.982C82.5274 183.274 84.4538 180.805 86.5818 179.942C86.8118 179.851 87.0076 179.691 87.1418 179.483L89.6674 183.364C89.4378 183.47 89.2082 183.577 88.9898 183.661C88.9898 183.661 91.941 186.27 91.6554 188.869C87.5338 190.034 83.5578 187.911 84.5602 184.982Z" fill="#263238"/>
<path d="M90.1211 190.84C90.5536 191.134 91.0404 191.338 91.553 191.441C92.0656 191.544 92.5936 191.543 93.1059 191.439C93.2048 191.42 93.3022 191.394 93.3971 191.361C94.2483 190.56 91.7172 187.743 91.5996 187.597C91.3288 187.515 91.0433 187.492 90.7629 187.531C90.4825 187.57 90.2139 187.669 89.9755 187.821C89.7347 187.999 89.5415 188.233 89.4131 188.503C89.2847 188.773 89.225 189.071 89.2394 189.37C89.2538 189.668 89.3419 189.959 89.4957 190.215C89.6495 190.472 89.8644 190.686 90.1211 190.84Z" fill="#EBB376"/>
<path d="M94.9532 184.008C95.1604 184.277 95.474 184.383 95.6532 184.243C95.8324 184.103 95.7988 183.767 95.586 183.498C95.3732 183.229 95.0596 183.123 94.886 183.263C94.7124 183.403 94.7404 183.739 94.9532 184.008Z" fill="#263238"/>
<path d="M98.0002 181.583C98.2074 181.852 98.521 181.958 98.7002 181.818C98.8794 181.678 98.8458 181.348 98.633 181.073C98.4202 180.799 98.1066 180.698 97.933 180.844C97.7594 180.989 97.7706 181.32 98.0002 181.583Z" fill="#263238"/>
<path d="M97.1211 182.49C98.0773 183.023 99.1024 183.42 100.167 183.672C100.033 184.467 99.0475 184.909 99.0475 184.909L97.1211 182.49Z" fill="#D58745"/>
<path d="M93.7506 181.925C93.7193 181.941 93.6933 181.966 93.6755 181.997C93.6576 182.028 93.6488 182.063 93.6498 182.098C93.6542 182.352 93.5987 182.604 93.4877 182.832C93.3768 183.061 93.2136 183.26 93.0114 183.414C92.9681 183.445 92.9378 183.49 92.9264 183.542C92.915 183.594 92.9233 183.648 92.9498 183.694C92.964 183.717 92.9826 183.736 93.0044 183.752C93.0262 183.767 93.0509 183.778 93.0769 183.783C93.103 183.789 93.1299 183.79 93.1561 183.785C93.1824 183.78 93.2074 183.77 93.2298 183.756C93.4908 183.562 93.7014 183.308 93.8437 183.016C93.986 182.723 94.0558 182.401 94.0474 182.076C94.0474 182.023 94.0269 181.973 93.9903 181.935C93.9537 181.898 93.9039 181.876 93.8514 181.874C93.8136 181.881 93.7785 181.898 93.7506 181.925Z" fill="#263238"/>
<path d="M98.4773 179.393C98.5093 179.37 98.5329 179.336 98.5445 179.298C98.5626 179.248 98.5605 179.194 98.5385 179.145C98.5165 179.097 98.4764 179.06 98.4269 179.041C98.1295 178.925 97.8083 178.883 97.4912 178.919C97.1741 178.955 96.8706 179.068 96.6069 179.248C96.5719 179.282 96.5506 179.328 96.5469 179.377C96.5433 179.426 96.5576 179.474 96.587 179.513C96.6165 179.552 96.6592 179.579 96.7072 179.589C96.7552 179.599 96.8051 179.591 96.8477 179.567C97.0587 179.428 97.3004 179.342 97.5521 179.316C97.8038 179.291 98.0578 179.327 98.2925 179.421C98.3232 179.433 98.3561 179.436 98.3884 179.431C98.4207 179.426 98.4512 179.413 98.4773 179.393Z" fill="#263238"/>
<path d="M99.0305 188.6C99.1399 188.558 99.2465 188.51 99.3497 188.454L99.6241 186.248C99.6241 186.248 99.4897 186.248 99.2825 186.248C98.5881 186.248 97.0425 186.405 96.6281 187.2C96.5828 187.291 96.5471 187.387 96.5217 187.485C96.4171 187.841 96.443 188.222 96.5945 188.561C96.8465 189.031 97.5185 189.277 99.0305 188.6Z" fill="#263238"/>
<path d="M96.522 187.48L99.2156 186.505L99.2828 186.242C98.5884 186.242 97.0428 186.399 96.6284 187.194C96.5831 187.285 96.5475 187.381 96.522 187.48Z" fill="white"/>
<path d="M99.0302 188.6C98.5598 187.816 97.3054 188.219 96.5942 188.567C96.8462 189.031 97.5182 189.278 99.0302 188.6Z" fill="#DE5753"/>
<path d="M84.5599 184.982C83.7311 184.344 82.5214 182.625 84.1454 180.833C85.7694 179.041 87.6903 178.156 86.7831 176.857C85.8759 175.557 87.4831 174.454 88.6143 175.3C88.6143 175.3 91.2742 170.949 93.167 174.292C93.167 174.292 95.0207 173.015 96.1575 174.387C97.2943 175.759 97.5295 177.226 96.0343 177.747C94.5391 178.268 94.3991 178.43 94.6567 179.298C94.9143 180.166 93.6151 180.883 93.6151 180.883C93.6151 180.883 94.4214 180.368 93.9622 179.763C93.8812 180.146 93.6903 180.498 93.4128 180.774C93.1354 181.051 92.7834 181.24 92.3999 181.32C90.9495 181.773 91.6215 183.185 91.6215 183.185C91.6215 183.185 90.8431 183.487 90.6751 182.378C90.6751 182.378 90.0703 184.853 88.4351 185.469C86.7999 186.085 85.7919 185.94 84.5599 184.982Z" fill="#263238"/>
<path opacity="0.1" d="M105.712 203.748C105.443 204.7 105.191 205.669 104.956 206.643C104.953 206.664 104.953 206.684 104.956 206.705L103.068 206.772L101.764 206.817C100.728 206.845 99.6804 206.873 98.6164 206.89H98.23H97.5076H96.8076C97.4868 205.613 98.4436 204.505 99.6076 203.647C99.8148 203.49 100.032 203.346 100.257 203.216C100.723 202.96 101.228 202.784 101.752 202.695C103.159 202.516 104.58 202.894 105.712 203.748Z" fill="black"/>
<path d="M109.469 201.894C109.441 202.442 109.269 202.973 108.971 203.434C108.259 204.554 107.537 205.596 106.781 206.626L104.944 206.705L103.057 206.772L101.752 206.817C100.716 206.845 99.669 206.873 98.605 206.889C98.6666 206.822 98.717 206.755 98.773 206.688C99.781 205.417 100.783 204.078 101.752 202.729C102.027 202.353 102.312 201.973 102.559 201.609C102.945 201.049 103.315 200.533 103.679 200.001L103.718 199.945C104.115 199.371 104.692 198.944 105.358 198.733C106.023 198.521 106.741 198.536 107.397 198.775C107.649 198.867 107.888 198.991 108.108 199.145C108.551 199.449 108.908 199.861 109.146 200.342C109.384 200.824 109.496 201.358 109.469 201.894Z" fill="#FFB573"/>
<path d="M109.788 201.911C109.489 203.58 108.842 205.167 107.889 206.57L106.769 206.626L104.932 206.704L103.045 206.772L101.74 206.816C100.704 206.844 99.6572 206.872 98.5932 206.889H98.2068H97.4844C98.106 205.948 98.8732 204.772 99.5956 203.658C100.088 202.885 100.559 202.146 100.94 201.519L101.337 200.864C101.962 199.784 102.858 198.887 103.936 198.26C105.173 197.557 106.585 197.219 108.007 197.285C108.484 197.595 108.886 198.009 109.183 198.495C109.785 199.525 110 200.736 109.788 201.911Z" fill="#0A0A0A"/>
<path opacity="0.7" d="M109.788 201.911C109.489 203.58 108.842 205.167 107.889 206.57L106.769 206.626L104.932 206.704L103.045 206.772L101.74 206.816C100.704 206.844 99.6572 206.872 98.5932 206.889H98.2068H97.4844C98.106 205.948 98.8732 204.772 99.5956 203.658C100.088 202.885 100.559 202.146 100.94 201.519L101.337 200.864C101.962 199.784 102.858 198.887 103.936 198.26C105.173 197.557 106.585 197.219 108.007 197.285C108.484 197.595 108.886 198.009 109.183 198.495C109.785 199.525 110 200.736 109.788 201.911Z" fill="white"/>
</svg>
