<svg width="32" height="32" viewBox="0 0 32 32" fill="none" xmlns="http://www.w3.org/2000/svg">
<g id="Group">
<path id="Vector" fill-rule="evenodd" clip-rule="evenodd" d="M15.9998 2.66663C8.63584 2.66663 2.6665 8.63596 2.6665 16C2.6665 23.364 8.63584 29.3333 15.9998 29.3333C23.3638 29.3333 29.3332 23.364 29.3332 16C29.3332 8.63596 23.3638 2.66663 15.9998 2.66663ZM11.3332 11.3333C11.3332 10.7205 11.4539 10.1136 11.6884 9.54744C11.9229 8.98125 12.2667 8.4668 12.7 8.03346C13.1333 7.60012 13.6478 7.25638 14.214 7.02186C14.7802 6.78733 15.387 6.66663 15.9998 6.66663C16.6127 6.66663 17.2195 6.78733 17.7857 7.02186C18.3519 7.25638 18.8663 7.60012 19.2997 8.03346C19.733 8.4668 20.0768 8.98125 20.3113 9.54744C20.5458 10.1136 20.6665 10.7205 20.6665 11.3333C20.6665 12.571 20.1748 13.758 19.2997 14.6331C18.4245 15.5083 17.2375 16 15.9998 16C14.7622 16 13.5752 15.5083 12.7 14.6331C11.8248 13.758 11.3332 12.571 11.3332 11.3333ZM7.03717 21.7866C9.23584 19.9893 12.4465 18.6666 15.9998 18.6666C19.5532 18.6666 22.7638 19.9893 24.9625 21.7866C23.996 23.2848 22.6691 24.5166 21.1033 25.3692C19.5374 26.2217 17.7827 26.6678 15.9998 26.6666C14.217 26.6678 12.4623 26.2217 10.8964 25.3692C9.33059 24.5166 8.00367 23.2848 7.03717 21.7866Z" fill="#2B2B2B"/>
</g>
</svg>
